<svg width="74" height="37" viewBox="0 0 74 37" fill="none" xmlns="http://www.w3.org/2000/svg">
<g style="mix-blend-mode:multiply" clip-path="url(#clip0_20_421)">
<path d="M15.1354 18.4802C14.0037 20.3054 13.0628 22.2513 12.3129 24.3181C11.5629 26.3848 10.9766 28.465 10.5675 30.5854C10.1585 32.7058 9.9403 34.6786 9.91303 36.5038H3.85885C4.17247 32.4106 5.15423 28.465 6.77686 24.6804C8.41312 20.8959 10.5539 17.42 13.1992 14.2662H0V9.08594H19.0216V13.8636C17.5626 15.1117 16.2672 16.655 15.1354 18.4802Z" fill="#401B17"/>
<path d="M20.6715 15.2456C21.0942 13.9035 21.735 12.7226 22.5804 11.716C23.4258 10.7095 24.503 9.93111 25.7848 9.36746C27.0665 8.8038 28.5528 8.52197 30.2163 8.52197C31.4844 8.52197 32.698 8.72328 33.857 9.11247C35.016 9.50166 36.0251 10.0653 36.8977 10.79C37.7704 11.5147 38.4658 12.4273 38.984 13.4875C39.5021 14.5611 39.7612 15.7556 39.7612 17.0842C39.7612 18.4665 39.5294 19.6609 39.0794 20.654C38.6294 21.6471 38.0295 22.5329 37.2932 23.2978C36.5568 24.0628 35.7114 24.7606 34.7706 25.3914C33.8297 26.0222 32.8752 26.6395 31.9208 27.2568C30.9663 27.8742 30.0391 28.5318 29.1391 29.2296C28.2392 29.9409 27.4347 30.7595 26.7529 31.699H39.9248V36.4766H19.4715C19.4715 34.8796 19.7033 33.4973 20.1669 32.3297C20.6305 31.1487 21.2578 30.1019 22.0623 29.1759C22.8531 28.2499 23.794 27.391 24.8712 26.6126C25.9484 25.8343 27.0801 25.029 28.2801 24.2238C28.8937 23.8078 29.5345 23.3783 30.23 22.9489C30.9254 22.5194 31.5526 22.0363 32.1253 21.5129C32.698 20.9895 33.1752 20.399 33.557 19.7548C33.9388 19.0972 34.1297 18.3591 34.1297 17.5271C34.1297 16.1984 33.7343 15.1516 32.9571 14.4135C32.1798 13.6754 31.1708 13.2996 29.9572 13.2996C29.1391 13.2996 28.4437 13.4875 27.871 13.8633C27.2983 14.2391 26.8483 14.7356 26.4938 15.3529C26.1529 15.9703 25.9075 16.6413 25.7575 17.3928C25.6075 18.131 25.5393 18.8691 25.5393 19.6072H20.126C20.0579 18.0504 20.2488 16.5876 20.6715 15.2456Z" fill="#401B17"/>
<path d="M48.3516 13.6618L47.2335 19.8888L47.3153 19.9694C48.0789 19.2178 48.9107 18.6676 49.7833 18.3455C50.656 18.0234 51.6514 17.8624 52.7695 17.8624C54.1467 17.8624 55.3739 18.1173 56.4238 18.6005C57.4874 19.097 58.3737 19.7681 59.11 20.6001C59.8327 21.4322 60.3918 22.4253 60.7872 23.5526C61.169 24.6933 61.3599 25.9012 61.3599 27.1761C61.3599 28.5852 61.0872 29.9004 60.5281 31.1083C59.9691 32.3161 59.2191 33.3763 58.2783 34.2621C57.3374 35.1478 56.2466 35.8322 54.9921 36.3154C53.7513 36.7985 52.415 37.0267 51.0105 36.9998C49.6606 36.9998 48.3652 36.8254 47.1244 36.4764C45.8972 36.1275 44.7927 35.5773 43.8382 34.8526C42.8837 34.1279 42.1202 33.2153 41.5475 32.1282C40.9748 31.0412 40.6748 29.7797 40.6475 28.3437H46.2926C46.429 29.5918 46.9062 30.5983 47.7244 31.3364C48.5425 32.0745 49.5924 32.4503 50.8742 32.4503C51.6105 32.4503 52.2923 32.3027 52.8786 31.994C53.4785 31.6988 53.9831 31.2962 54.3921 30.813C54.8012 30.3299 55.1148 29.7662 55.3466 29.1355C55.5784 28.4913 55.6875 27.8337 55.6875 27.1627C55.6875 26.4514 55.5784 25.7938 55.3739 25.163C55.1557 24.5323 54.8421 23.9821 54.4194 23.5123C53.9967 23.0426 53.4922 22.6803 52.9059 22.4119C52.3195 22.1569 51.6514 22.0227 50.8742 22.0227C49.8651 22.0227 49.047 22.1971 48.4061 22.5461C47.7653 22.895 47.1789 23.4587 46.6199 24.2102H41.5202L44.2609 9.05859H59.86V13.6349H48.3516V13.6618Z" fill="#401B17"/>
<path d="M69.0094 10.1191C69.3775 10.1191 69.7184 10.1728 70.032 10.2936C70.3457 10.4144 70.6184 10.5754 70.8502 10.817C71.082 11.0451 71.2592 11.3404 71.3956 11.6759C71.5319 12.0248 71.5865 12.4274 71.5865 12.8972C71.5865 13.2998 71.532 13.6755 71.4229 14.0245C71.3138 14.3734 71.1502 14.6687 70.9456 14.9236C70.7275 15.1786 70.4684 15.3665 70.1411 15.5141C69.8139 15.6618 69.4457 15.7289 69.0094 15.7289H66.555V10.1191H69.0094ZM68.9139 14.6821C69.0912 14.6821 69.2684 14.6552 69.4457 14.6015C69.6093 14.5479 69.773 14.4539 69.8957 14.3197C70.032 14.1855 70.1411 14.0111 70.2093 13.7963C70.2911 13.5816 70.332 13.3266 70.332 13.0179C70.332 12.7361 70.3048 12.4811 70.2502 12.253C70.1957 12.0248 70.1002 11.8369 69.9775 11.6625C69.8548 11.5014 69.6775 11.3807 69.473 11.2867C69.2684 11.2062 69.0094 11.1525 68.6957 11.1525H67.8094V14.6821H68.9139Z" fill="#401B17"/>
<path d="M68.6685 18.1847C65.7369 18.1847 63.337 15.8361 63.337 12.9373C63.337 10.0385 65.7232 7.68994 68.6685 7.68994C71.6001 7.68994 74 10.0385 74 12.9373C74 15.8361 71.6138 18.1847 68.6685 18.1847ZM68.6685 8.62937C66.255 8.62937 64.2915 10.5619 64.2915 12.9373C64.2915 15.3127 66.255 17.2453 68.6685 17.2453C71.082 17.2453 73.0455 15.3127 73.0455 12.9373C73.0455 10.5619 71.082 8.62937 68.6685 8.62937Z" fill="#401B17"/>
<path d="M3.68159 1.70537C3.64069 1.41012 3.51797 1.19539 3.32707 1.04777C3.13617 0.900142 2.89073 0.81962 2.59075 0.81962C2.4544 0.81962 2.30441 0.846461 2.15441 0.886722C2.00442 0.926983 1.85443 1.02093 1.73171 1.14171C1.59536 1.26249 1.49991 1.43696 1.40446 1.6651C1.32265 1.89325 1.26811 2.17508 1.26811 2.53743C1.26811 2.72531 1.29538 2.92662 1.33628 3.11451C1.37719 3.31581 1.459 3.47686 1.55445 3.6379C1.6499 3.78552 1.78626 3.90631 1.94988 4.01367C2.11351 4.10761 2.30441 4.1613 2.53621 4.1613C2.84983 4.1613 3.09527 4.06735 3.2998 3.87947C3.50433 3.69158 3.62705 3.42317 3.68159 3.08766H4.73153C4.63608 3.705 4.39064 4.17472 4.02248 4.49681C3.65432 4.81889 3.14981 4.97994 2.53621 4.97994C2.15441 4.97994 1.82716 4.91284 1.54082 4.79205C1.25447 4.67127 1.00903 4.49681 0.818133 4.28208C0.627236 4.06735 0.477245 3.81237 0.368161 3.51712C0.272712 3.22187 0.21817 2.89978 0.21817 2.55085C0.21817 2.20192 0.272712 1.86641 0.368161 1.55774C0.46361 1.24907 0.6136 0.980665 0.818133 0.752518C1.00903 0.524372 1.25447 0.349907 1.55445 0.215703C1.85443 0.0814989 2.18169 0.000976562 2.57712 0.000976562C2.84983 0.000976562 3.12254 0.0412377 3.36798 0.10834C3.61342 0.175442 3.84522 0.282805 4.03612 0.417008C4.22702 0.551212 4.39064 0.739098 4.51336 0.940403C4.63608 1.15513 4.70426 1.41012 4.73153 1.69194H3.68159V1.70537Z" fill="#401B17"/>
<path d="M7.8268 6.26739H6.85867V4.06645H7.45864C7.55409 4.03961 7.6359 3.99935 7.71771 3.93225C7.8677 3.82488 7.97679 3.66384 8.03133 3.46253C8.07224 3.34175 8.09951 3.23439 8.11314 3.12702C8.14041 3.01966 8.15405 2.89888 8.16768 2.76467C8.18132 2.63047 8.19495 2.49627 8.19495 2.33522C8.19495 2.17418 8.20859 1.99971 8.20859 1.78498C8.20859 1.58368 8.22223 1.34211 8.22223 1.0737C8.22223 0.805297 8.22223 0.496628 8.22223 0.134277H12.1902V4.06645H13.0356V6.26739H12.0674V4.84483H7.8268V6.26739ZM11.1539 0.899239H9.29943C9.29943 1.28843 9.29943 1.63736 9.2858 1.94603C9.2858 2.24128 9.27216 2.50969 9.25853 2.73783C9.24489 2.96598 9.21762 3.16728 9.20398 3.34175C9.17671 3.51621 9.14944 3.66384 9.10854 3.79804C9.08126 3.89199 9.05399 3.97251 9.02672 4.05303H11.1675V0.899239H11.1539Z" fill="#401B17"/>
<path d="M16.2126 2.75142C16.2126 2.9393 16.2399 3.11377 16.2944 3.27481C16.349 3.44928 16.4308 3.5969 16.5262 3.71768C16.6353 3.85189 16.758 3.94583 16.9217 4.02635C17.0853 4.10687 17.2762 4.13371 17.4944 4.13371C17.808 4.13371 18.0534 4.06661 18.2443 3.93241C18.4352 3.79821 18.5716 3.61032 18.667 3.34191H19.6624C19.6079 3.5969 19.5124 3.82505 19.3761 4.02635C19.2397 4.22766 19.0761 4.40212 18.8852 4.53633C18.6943 4.67053 18.4761 4.77789 18.2443 4.845C18.0125 4.9121 17.7534 4.95236 17.4944 4.95236C17.1126 4.95236 16.7853 4.88526 16.499 4.76447C16.2126 4.64369 15.9672 4.46922 15.7627 4.2545C15.5581 4.03977 15.4081 3.77136 15.3127 3.47612C15.2172 3.16745 15.1627 2.83194 15.1627 2.46959C15.1627 2.13408 15.2172 1.81199 15.3263 1.51674C15.4354 1.22149 15.5854 0.953084 15.7899 0.724937C15.9945 0.496791 16.2263 0.322326 16.5126 0.188122C16.799 0.0539183 17.1126 -0.0131836 17.4807 -0.0131836C17.8625 -0.0131836 18.1898 0.0673387 18.4898 0.214963C18.7897 0.376008 19.0352 0.577313 19.2397 0.832301C19.4306 1.08729 19.5806 1.38254 19.6761 1.71805C19.7715 2.05356 19.7851 2.38907 19.7442 2.738H16.2126V2.75142ZM18.667 2.06698C18.6534 1.90593 18.6125 1.74489 18.5579 1.59726C18.5034 1.44964 18.4216 1.31543 18.3125 1.19465C18.2171 1.08729 18.0807 0.993345 17.9443 0.926243C17.7943 0.859141 17.6307 0.81888 17.4535 0.81888C17.2626 0.81888 17.0989 0.845721 16.9489 0.912823C16.799 0.979925 16.6626 1.06045 16.5535 1.18123C16.4444 1.28859 16.3626 1.4228 16.2944 1.58384C16.2263 1.74489 16.199 1.90593 16.1854 2.0804H18.667V2.06698Z" fill="#401B17"/>
<path d="M22.1714 4.09329C22.335 4.09329 22.485 4.03961 22.635 3.93225C22.785 3.82488 22.8804 3.66384 22.9486 3.46253C22.9895 3.34175 23.0168 3.23439 23.0304 3.12702C23.0577 3.01966 23.0713 2.89888 23.0849 2.76467C23.0986 2.63047 23.1122 2.49626 23.1122 2.33522C23.1122 2.17418 23.1258 1.99971 23.1258 1.78498C23.1258 1.58368 23.1395 1.34211 23.1395 1.0737C23.1395 0.805296 23.1395 0.496628 23.1395 0.134277H27.1347V4.84483H26.0848V0.899239H24.244C24.244 1.28843 24.244 1.63736 24.2303 1.94603C24.2167 2.24128 24.203 2.50968 24.1894 2.73783C24.1758 2.96598 24.1485 3.16728 24.1349 3.34175C24.1076 3.51621 24.0803 3.66384 24.0394 3.79804C23.9985 3.94567 23.944 4.09329 23.8758 4.22749C23.8076 4.3617 23.7122 4.46906 23.5895 4.563C23.4667 4.65695 23.2895 4.73747 23.0849 4.79115C22.8668 4.84483 22.5941 4.87167 22.2532 4.87167C22.1577 4.87167 22.0759 4.87167 22.0077 4.87167C21.9395 4.87167 21.8714 4.85825 21.8032 4.84483V4.06645C21.8714 4.07987 21.9259 4.07987 21.9805 4.09329C21.9941 4.09329 22.0759 4.09329 22.1714 4.09329Z" fill="#401B17"/>
<path d="M34.007 3.78455C34.007 3.91875 34.0206 3.99927 34.0615 4.05296C34.0888 4.10664 34.157 4.13348 34.2661 4.13348H34.3752C34.4161 4.13348 34.4706 4.13348 34.5252 4.12006V4.84476C34.4842 4.85818 34.4433 4.8716 34.3752 4.88502C34.3206 4.89844 34.2524 4.91186 34.1979 4.92528C34.1297 4.9387 34.0752 4.95212 34.007 4.95212C33.9388 4.95212 33.8979 4.96554 33.8434 4.96554C33.6252 4.96554 33.4479 4.92528 33.3116 4.83134C33.1752 4.75082 33.0798 4.60319 33.0389 4.38847C32.8343 4.58977 32.5753 4.7374 32.2617 4.83134C31.9617 4.92528 31.6617 4.96554 31.3753 4.96554C31.1572 4.96554 30.9526 4.9387 30.7617 4.88502C30.5708 4.83134 30.3936 4.7374 30.2436 4.63003C30.0936 4.52267 29.9709 4.37504 29.8891 4.20058C29.7936 4.02611 29.7527 3.82481 29.7527 3.59666C29.7527 3.30141 29.8073 3.07327 29.9163 2.88538C30.0254 2.6975 30.1618 2.56329 30.339 2.45593C30.5163 2.34857 30.7072 2.28147 30.9254 2.22778C31.1435 2.18752 31.3617 2.14726 31.5935 2.12042C31.7844 2.08016 31.9617 2.05332 32.1389 2.0399C32.3162 2.02648 32.4662 1.99964 32.6025 1.95938C32.7389 1.91911 32.8343 1.86543 32.9162 1.78491C32.998 1.70439 33.0252 1.59703 33.0252 1.4494C33.0252 1.3152 32.998 1.20783 32.9298 1.12731C32.8616 1.04679 32.7798 0.979688 32.6844 0.926006C32.5889 0.885745 32.4798 0.845484 32.3707 0.832064C32.248 0.818643 32.1389 0.805223 32.0435 0.805223C31.7435 0.805223 31.4981 0.872325 31.3072 0.993108C31.1163 1.11389 31.0072 1.30178 30.9799 1.55676H29.93C29.9436 1.2481 30.0254 1.00653 30.1481 0.805223C30.2845 0.603917 30.4481 0.442873 30.639 0.322089C30.8436 0.201306 31.0617 0.120783 31.3208 0.0671019C31.5799 0.0134204 31.839 0 32.098 0C32.3298 0 32.5616 0.0268408 32.7934 0.0671019C33.0252 0.120783 33.2298 0.201306 33.407 0.308669C33.5843 0.416032 33.7343 0.563656 33.8434 0.738121C33.9525 0.912586 34.007 1.12731 34.007 1.36888V3.78455ZM32.9434 2.48277C32.7798 2.59013 32.5889 2.64382 32.3571 2.67066C32.1253 2.6975 31.8935 2.72434 31.6481 2.7646C31.539 2.77802 31.4299 2.80486 31.3208 2.84512C31.2117 2.87196 31.1163 2.92564 31.0481 2.97933C30.9663 3.03301 30.8981 3.11353 30.8572 3.20747C30.8163 3.30141 30.789 3.4222 30.789 3.54298C30.789 3.66376 30.8163 3.75771 30.8845 3.83823C30.9526 3.91875 31.0345 3.98585 31.1299 4.02611C31.2254 4.06638 31.3344 4.10664 31.4435 4.12006C31.5526 4.13348 31.6617 4.1469 31.7571 4.1469C31.8799 4.1469 32.0026 4.13348 32.1389 4.10664C32.2753 4.0798 32.398 4.02611 32.5207 3.94559C32.6434 3.87849 32.7389 3.78455 32.8207 3.66376C32.9025 3.5564 32.9434 3.40878 32.9434 3.24773V2.48277Z" fill="#401B17"/>
<path d="M36.9386 0.134277H37.9886V2.08023H40.3748V0.134277H41.4247V4.84483H40.3748V2.85862H37.9886V4.84483H36.9386V0.134277Z" fill="#401B17"/>
<path d="M46.4562 4.96579C46.0744 4.96579 45.7336 4.89869 45.4336 4.77791C45.1336 4.65712 44.8745 4.48266 44.67 4.26793C44.4655 4.05321 44.3018 3.7848 44.1927 3.48955C44.0837 3.18088 44.0291 2.84537 44.0291 2.48302C44.0291 2.12067 44.0837 1.79858 44.1927 1.48991C44.3018 1.18125 44.4518 0.926258 44.67 0.711532C44.8745 0.496806 45.1336 0.322341 45.4336 0.201557C45.7336 0.0807738 46.0744 0.0136719 46.4562 0.0136719C46.838 0.0136719 47.1789 0.0807738 47.4789 0.201557C47.7789 0.322341 48.038 0.496806 48.2425 0.711532C48.447 0.926258 48.6106 1.19467 48.7197 1.48991C48.8288 1.79858 48.8834 2.12067 48.8834 2.48302C48.8834 2.84537 48.8288 3.18088 48.7197 3.48955C48.6106 3.79822 48.4607 4.05321 48.2425 4.26793C48.038 4.48266 47.7789 4.65712 47.4789 4.77791C47.1789 4.89869 46.838 4.96579 46.4562 4.96579ZM46.4562 4.14715C46.688 4.14715 46.8926 4.09347 47.0698 3.99953C47.2471 3.90558 47.3834 3.77138 47.4925 3.61033C47.6016 3.44929 47.6834 3.27483 47.738 3.07352C47.7925 2.87221 47.8198 2.67091 47.8198 2.4696C47.8198 2.2683 47.7925 2.06699 47.738 1.86568C47.6834 1.66438 47.6016 1.48991 47.4925 1.32887C47.3834 1.16782 47.2335 1.04704 47.0698 0.953099C46.8926 0.859156 46.688 0.805475 46.4562 0.805475C46.2244 0.805475 46.0199 0.859156 45.8426 0.953099C45.6654 1.04704 45.529 1.18125 45.4199 1.32887C45.3109 1.48991 45.229 1.66438 45.1745 1.86568C45.12 2.06699 45.0927 2.2683 45.0927 2.4696C45.0927 2.67091 45.12 2.87221 45.1745 3.07352C45.229 3.27483 45.3109 3.44929 45.4199 3.61033C45.529 3.77138 45.679 3.89216 45.8426 3.99953C46.0199 4.09347 46.2244 4.14715 46.4562 4.14715Z" fill="#401B17"/>
<path d="M56.0556 0.134277H58.5782C59.0145 0.134277 59.3554 0.22822 59.6145 0.416105C59.8736 0.603991 60.0099 0.899239 60.0099 1.30185C60.0099 1.54342 59.9554 1.74472 59.8327 1.90577C59.71 2.08023 59.5463 2.20102 59.3282 2.29496V2.30838C59.6281 2.37548 59.8463 2.50969 59.9963 2.72441C60.1463 2.93914 60.2281 3.20755 60.2281 3.52963C60.2281 3.71752 60.2008 3.87856 60.1327 4.03961C60.0645 4.20065 59.9554 4.33486 59.819 4.45564C59.6827 4.57642 59.4918 4.67037 59.2736 4.73747C59.0555 4.80457 58.7827 4.83141 58.4828 4.83141H56.0829V0.134277H56.0556ZM57.1192 2.05339H58.251C58.4555 2.05339 58.6191 1.99971 58.7555 1.90577C58.8918 1.81183 58.96 1.6642 58.96 1.47632C58.96 1.26159 58.9055 1.11397 58.7827 1.03344C58.66 0.952921 58.4828 0.899239 58.2646 0.899239H57.1328V2.05339H57.1192ZM57.1192 4.06645H58.3737C58.6327 4.06645 58.8236 4.01277 58.96 3.89198C59.0964 3.7712 59.1645 3.61016 59.1645 3.39543C59.1645 3.1807 59.0964 3.01966 58.96 2.9123C58.8236 2.80493 58.6327 2.73783 58.3737 2.73783H57.1192V4.06645Z" fill="#401B17"/>
</g>
<defs>
<clipPath id="clip0_20_421">
<rect width="74" height="37" fill="white"/>
</clipPath>
</defs>
</svg>
