<svg width="257" height="35" viewBox="0 0 257 35" fill="none" xmlns="http://www.w3.org/2000/svg">
<path d="M18.597 34.1706C15.2392 34.1706 11.8814 33.6505 8.78191 32.0901C3.35779 28.9694 0 23.248 0 17.0065C0 6.08386 8.52362 0.102417 18.597 0.102417C21.9548 0.102417 25.3126 0.622543 28.4121 2.18292C33.8362 5.04361 37.194 10.765 37.194 17.0065C37.4523 27.9291 28.6703 34.1706 18.597 34.1706ZM18.597 5.8238C12.1397 5.8238 7.23216 10.5049 7.23216 17.0065C7.23216 23.7681 12.1397 28.4493 18.597 28.4493C25.0543 28.4493 29.9618 23.7681 29.9618 17.0065C30.2201 10.2449 25.3126 5.8238 18.597 5.8238Z" fill="#401B17"/>
<path d="M60.4402 33.3905H41.0683V32.6103C42.1015 32.3502 42.6181 31.8301 42.6181 30.7898V8.42444C42.6181 7.38419 42.1015 6.86406 41.0683 6.604V6.08387H65.606C66.6392 6.08387 67.1558 5.56375 67.4141 4.5235H68.1889V12.5854H67.4141C67.1558 11.5452 66.6392 11.0251 65.606 11.0251H49.0754V16.2263H59.9236C65.3477 16.2263 70.7718 18.5669 70.7718 24.8084C70.7718 31.31 65.606 33.3905 60.4402 33.3905ZM59.407 28.4493C61.7316 28.4493 64.3146 27.6691 64.3146 24.8084C64.3146 21.9477 61.7316 21.1675 59.407 21.1675H49.0754V28.4493H59.407V28.4493Z" fill="#401B17"/>
<path d="M76.7126 11.0251C75.6794 11.0251 75.1628 11.5452 74.9045 12.5854H74.3879V4.5235H74.9045C75.1628 5.56375 75.6794 6.08387 76.7126 6.08387H91.1769V6.604C90.402 6.86406 89.6271 7.38419 89.6271 8.42444V15.7062H99.1839C104.608 15.7062 110.549 17.2666 110.549 24.5483C110.549 32.0901 104.608 33.3905 99.1839 33.3905H81.3618V32.6103C82.395 32.3502 82.9116 31.8301 82.9116 30.7898V11.0251H76.7126ZM99.1839 20.6474H89.8854V28.4493H99.1839C101.509 28.4493 104.091 28.1892 104.091 24.5483C104.091 21.1675 101.25 20.6474 99.1839 20.6474Z" fill="#401B17"/>
<path d="M135.861 30.2696V31.0498C135.861 32.09 136.636 32.6101 137.411 32.8702V33.6504H127.854V32.8702C128.887 32.6101 129.404 32.09 129.404 31.0498V8.4243C129.404 7.38405 128.887 6.86393 127.854 6.60387V6.08374H137.411V6.60387C136.636 6.86393 135.861 7.38405 135.861 8.4243V23.2479L151.101 9.20449V8.4243C151.101 7.38405 150.584 6.86393 149.551 6.60387V6.08374H159.108V6.60387C158.333 6.86393 157.558 7.38405 157.558 8.4243V30.7897C157.558 31.8299 158.074 32.3501 159.108 32.6101V33.3903H149.551V32.6101C150.584 32.3501 151.101 31.8299 151.101 30.7897V16.2262L135.861 30.2696Z" fill="#401B17"/>
<path d="M172.28 32.8703V33.6505H162.724V32.8703C163.757 32.6103 164.273 32.0901 164.273 31.0499V8.42444C164.273 7.38419 163.757 6.86406 162.724 6.604V6.08387H183.645C184.678 6.08387 185.195 5.30369 185.453 4.5235H185.97V12.5854H185.453C185.195 11.5452 184.678 11.0251 183.645 11.0251H170.731V31.0499C170.731 32.0901 171.247 32.6103 172.28 32.8703Z" fill="#401B17"/>
<path d="M197.335 31.0498C197.335 32.09 198.11 32.6101 198.884 32.8702V33.6504H189.328V32.8702C190.361 32.6101 190.877 32.09 190.877 31.0498V8.4243C190.877 7.38405 190.361 6.86393 189.328 6.60387V6.08374H207.15C212.574 6.08374 218.515 7.38405 218.515 14.1457C218.515 20.6472 212.574 22.2076 207.15 22.2076H197.335V31.0498ZM206.633 17.2664C208.958 17.2664 211.541 17.2664 211.541 14.1457C211.541 11.0249 208.7 11.0249 206.633 11.0249H197.335V17.2664H206.633Z" fill="#401B17"/>
<path d="M245.635 15.7046H236.078V11.0235H248.476C249.51 11.0235 250.026 11.5436 250.284 12.5838H250.801V4.2618H250.284C250.026 5.30206 249.51 5.82219 248.476 5.82219H237.628H236.078V2.96148C236.078 1.92123 236.853 1.4011 237.628 1.14104V0.620911H227.813V1.14104C228.846 1.4011 229.363 1.92123 229.363 2.96148V5.82219H222.906C221.872 5.82219 221.356 5.04199 221.097 4.2618H220.581V12.3238H221.097C221.356 11.2835 221.872 10.7634 222.906 10.7634H229.363V30.7883C229.363 31.8286 228.588 32.3487 227.813 32.6087V33.3889H245.635C251.059 33.3889 257 32.0886 257 24.5468C257 17.265 251.059 15.7046 245.635 15.7046ZM245.377 28.4477H236.078V20.6458H245.377C247.701 20.6458 250.284 21.1659 250.284 24.5468C250.284 28.1877 247.701 28.4477 245.377 28.4477Z" fill="#401B17"/>
</svg>
