<svg width="246" height="34" viewBox="0 0 246 34" fill="none" xmlns="http://www.w3.org/2000/svg">
<g clip-path="url(#clip0_20_395)">
<path d="M9.53678 31.7826V32.5217H0V31.7826C0.733598 31.5362 1.4672 31.0435 1.4672 30.058V3.69565C1.4672 2.95652 0.733598 2.46377 0 2.21739V1.47826H23.9642C24.9423 1.47826 25.4314 0.73913 25.6759 0H26.4095V8.13043H25.6759C25.4314 7.3913 24.9423 6.65217 23.9642 6.65217H8.06958V30.3043C8.06958 31.0435 8.80318 31.5362 9.53678 31.7826Z" fill="#401B17"/>
<path d="M38.8807 26.1159C38.3916 27.3478 36.9245 29.3188 36.9245 30.5507C36.9245 31.2898 37.6581 31.7825 38.3917 32.0289V32.768H28.8549V32.0289C30.0775 31.7825 30.5666 31.0434 31.0557 29.8115L40.5924 10.5941C40.837 10.1014 41.0815 9.36224 41.0815 8.62311C41.0815 7.88398 40.3479 7.39123 39.6143 7.14485V6.6521H49.6402V7.14485C48.9066 7.39123 48.4175 7.88398 48.4175 8.62311C48.4175 9.36224 48.662 10.1014 48.9066 10.5941L58.6879 29.3188C59.4215 30.5507 59.9105 31.5362 61.3777 31.7825V32.5217H50.8628V31.7825C51.5964 31.5362 52.33 31.2898 52.33 30.3043C52.33 28.5796 51.1074 27.3478 50.3738 25.8695H38.8807V26.1159ZM44.505 14.0434L40.5924 22.4202H48.9066L44.505 14.0434Z" fill="#401B17"/>
<path d="M83.3857 32.5217V31.7825C84.3638 31.5362 84.8529 31.0434 84.8529 30.0579V11.3333H73.3598V20.942C73.3598 29.5651 70.4255 32.5217 66.2684 32.5217H63.0895V27.3478H63.8231C63.8231 27.8405 64.3121 28.0869 64.5567 28.0869C66.0239 28.0869 67.002 26.1159 67.002 21.1883V8.86949C67.002 7.88398 66.5129 7.39123 65.5348 7.14485V6.6521H92.4334V7.14485C91.4553 7.39123 90.9662 7.88398 90.9662 8.86949V30.0579C90.9662 31.0434 91.4553 31.5362 92.4334 31.7825V32.5217H83.3857Z" fill="#401B17"/>
<path d="M114.441 32.5217V31.7825C115.419 31.5362 115.909 31.0434 115.909 30.0579V11.3333H104.416V20.942C104.416 29.5651 101.481 32.5217 97.3241 32.5217H94.1451V27.3478H94.8787C94.8787 27.8405 95.3678 28.0869 95.6123 28.0869C97.0795 28.0869 98.0576 26.1159 98.0576 21.1883V8.86949C98.0576 7.88398 97.5686 7.39123 96.5905 7.14485V6.6521H123.489V7.14485C122.755 7.39123 122.266 7.88398 122.266 8.86949V30.0579C122.266 31.0434 122.755 31.5362 123.734 31.7825V32.5217H114.441Z" fill="#401B17"/>
<path d="M134.249 27.8407H150.632C151.61 27.8407 152.099 27.348 152.344 26.3625H153.078V34.2465H152.344C152.099 33.261 151.61 32.7683 150.632 32.7683H126.668V32.0291C127.646 31.7828 128.135 31.29 128.135 30.3045V8.86972C128.135 7.88422 127.646 7.39146 126.668 7.14509V6.65233H149.899C150.877 6.65233 151.366 6.15958 151.61 5.17407H152.344V12.8118H151.61C151.366 11.8262 150.877 11.3335 149.899 11.3335H134.249V17.0002H144.03C145.008 17.0002 145.497 16.261 145.742 15.5219H146.475V23.1596H145.742C145.497 22.1741 145.008 21.6813 144.03 21.6813H134.249V27.8407Z" fill="#401B17"/>
<path d="M163.837 30.0579C163.837 31.0434 164.571 31.5362 165.304 31.7825V32.5217H156.256V31.7825C157.235 31.5362 157.724 31.0434 157.724 30.0579V8.86949C157.724 7.88398 157.235 7.39123 156.256 7.14485V6.6521H173.129C178.264 6.6521 183.889 7.88398 183.889 14.2898C183.889 20.4492 178.264 21.9275 173.129 21.9275H163.837V30.0579ZM172.64 16.9999C174.841 16.9999 177.286 16.9999 177.286 14.0434C177.286 11.0869 174.596 11.0869 172.64 11.0869H163.837V16.9999H172.64Z" fill="#401B17"/>
<path d="M194.648 27.8407H211.032C212.01 27.8407 212.499 27.348 212.744 26.3625H213.477V34.2465H212.744C212.499 33.261 212.01 32.7683 211.032 32.7683H187.068V32.0291C188.046 31.7828 188.535 31.29 188.535 30.3045V8.86972C188.535 7.88422 188.046 7.39146 187.068 7.14509V6.65233H210.298C211.276 6.65233 211.765 6.15958 212.01 5.17407H212.744V12.8118H212.01C211.765 11.8262 211.276 11.3335 210.298 11.3335H194.648V17.0002H204.429C205.408 17.0002 205.897 16.261 206.141 15.5219H206.875V23.1596H206.141C205.897 22.1741 205.408 21.6813 204.429 21.6813H194.648V27.8407Z" fill="#401B17"/>
<path d="M236.952 32.522V31.7828C237.93 31.5364 238.419 31.0437 238.419 30.0582V21.9277H232.306L227.171 29.3191C226.682 29.8118 226.437 30.3046 226.437 30.7973C226.437 31.5364 227.171 31.5364 227.66 31.7828V32.522H216.901V31.7828C218.612 31.5364 219.835 29.8118 220.813 28.3335L225.704 21.435C221.547 20.4495 218.368 18.7248 218.368 14.0437C218.368 7.39151 223.992 6.40601 229.372 6.40601H246.245V6.89876C245.022 7.39151 244.533 7.88427 244.533 8.86977V30.0582C244.533 31.0437 245.022 31.5364 246 31.7828V32.522H236.952ZM238.419 11.3335H229.127C226.926 11.3335 224.481 11.3335 224.481 14.2901C224.481 17.0002 227.171 17.2466 229.127 17.2466H238.419V11.3335Z" fill="#401B17"/>
</g>
<defs>
<clipPath id="clip0_20_395">
<rect width="246" height="34" fill="white"/>
</clipPath>
</defs>
</svg>
