<svg width="566" height="161" viewBox="0 0 566 161" fill="none" xmlns="http://www.w3.org/2000/svg">
<path d="M24.2107 0H28.4919H537.803H542.085V3.15686V3.30036C542.085 13.6319 550.499 22.8155 563.49 26.8333L566 27.6943V29.7032V131.727V133.736L563.49 134.597C550.647 138.615 542.232 147.799 542.232 157.987V161H538.099H28.7872H24.6536V157.987C24.506 147.655 16.0913 138.471 2.95253 134.597L0 133.593V131.584V29.7032V27.6943L2.65728 26.9768C15.796 22.959 24.2107 13.6319 24.2107 3.30036V3.01337V0Z" fill="#EFEBE2"/>
<path d="M173.597 85.1706C170.239 85.1706 166.881 84.6505 163.782 83.0901C158.358 79.9694 155 74.248 155 68.0065C155 57.0839 163.524 51.1024 173.597 51.1024C176.955 51.1024 180.313 51.6225 183.412 53.1829C188.836 56.0436 192.194 61.765 192.194 68.0065C192.452 78.9291 183.67 85.1706 173.597 85.1706ZM173.597 56.8238C167.14 56.8238 162.232 61.5049 162.232 68.0065C162.232 74.7681 167.14 79.4493 173.597 79.4493C180.054 79.4493 184.962 74.7681 184.962 68.0065C185.22 61.2449 180.313 56.8238 173.597 56.8238Z" fill="#401B17"/>
<path d="M215.44 84.3905H196.068V83.6103C197.101 83.3502 197.618 82.8301 197.618 81.7898V59.4244C197.618 58.3842 197.101 57.8641 196.068 57.604V57.0839H220.606C221.639 57.0839 222.156 56.5637 222.414 55.5235H223.189V63.5854H222.414C222.156 62.5452 221.639 62.0251 220.606 62.0251H204.075V67.2263H214.924C220.348 67.2263 225.772 69.5669 225.772 75.8084C225.772 82.31 220.606 84.3905 215.44 84.3905ZM214.407 79.4493C216.732 79.4493 219.315 78.6691 219.315 75.8084C219.315 72.9477 216.732 72.1675 214.407 72.1675H204.075V79.4493H214.407V79.4493Z" fill="#401B17"/>
<path d="M231.713 62.0251C230.679 62.0251 230.163 62.5452 229.905 63.5854H229.388V55.5235H229.905C230.163 56.5637 230.679 57.0839 231.713 57.0839H246.177V57.604C245.402 57.8641 244.627 58.3842 244.627 59.4244V66.7062H254.184C259.608 66.7062 265.549 68.2666 265.549 75.5483C265.549 83.0901 259.608 84.3905 254.184 84.3905H236.362V83.6103C237.395 83.3502 237.912 82.8301 237.912 81.7898V62.0251H231.713ZM254.184 71.6474H244.885V79.4493H254.184C256.509 79.4493 259.091 79.1892 259.091 75.5483C259.091 72.1675 256.25 71.6474 254.184 71.6474Z" fill="#401B17"/>
<path d="M290.861 81.2696V82.0498C290.861 83.09 291.636 83.6101 292.411 83.8702V84.6504H282.854V83.8702C283.887 83.6101 284.404 83.09 284.404 82.0498V59.4243C284.404 58.3841 283.887 57.8639 282.854 57.6039V57.0837H292.411V57.6039C291.636 57.8639 290.861 58.3841 290.861 59.4243V74.2479L306.101 60.2045V59.4243C306.101 58.3841 305.584 57.8639 304.551 57.6039V57.0837H314.108V57.6039C313.333 57.8639 312.558 58.3841 312.558 59.4243V81.7897C312.558 82.8299 313.074 83.3501 314.108 83.6101V84.3903H304.551V83.6101C305.584 83.3501 306.101 82.8299 306.101 81.7897V67.2262L290.861 81.2696Z" fill="#401B17"/>
<path d="M327.28 83.8703V84.6505H317.724V83.8703C318.757 83.6103 319.273 83.0901 319.273 82.0499V59.4244C319.273 58.3842 318.757 57.8641 317.724 57.604V57.0839H338.645C339.678 57.0839 340.195 56.3037 340.453 55.5235H340.97V63.5854H340.453C340.195 62.5452 339.678 62.0251 338.645 62.0251H325.731V82.0499C325.731 83.0901 326.247 83.6103 327.28 83.8703Z" fill="#401B17"/>
<path d="M352.335 82.0498C352.335 83.09 353.11 83.6101 353.884 83.8702V84.6504H344.328V83.8702C345.361 83.6101 345.877 83.09 345.877 82.0498V59.4243C345.877 58.3841 345.361 57.8639 344.328 57.6039V57.0837H362.15C367.574 57.0837 373.515 58.3841 373.515 65.1457C373.515 71.6472 367.574 73.2076 362.15 73.2076H352.335V82.0498ZM361.633 68.2664C363.958 68.2664 366.541 68.2664 366.541 65.1457C366.541 62.0249 363.7 62.0249 361.633 62.0249H352.335V68.2664H361.633Z" fill="#401B17"/>
<path d="M400.635 66.7046H391.078V62.0235H403.476C404.51 62.0235 405.026 62.5436 405.284 63.5838H405.801V55.2618H405.284C405.026 56.3021 404.51 56.8222 403.476 56.8222H392.628H391.078V53.9615C391.078 52.9212 391.853 52.4011 392.628 52.141V51.6209H382.813V52.141C383.846 52.4011 384.363 52.9212 384.363 53.9615V56.8222H377.906C376.872 56.8222 376.356 56.042 376.097 55.2618H375.581V63.3238H376.097C376.356 62.2835 376.872 61.7634 377.906 61.7634H384.363V81.7883C384.363 82.8286 383.588 83.3487 382.813 83.6087V84.3889H400.635C406.059 84.3889 412 83.0886 412 75.5468C412 68.265 406.059 66.7046 400.635 66.7046ZM400.377 79.4477H391.078V71.6458H400.377C402.701 71.6458 405.284 72.1659 405.284 75.5468C405.284 79.1877 402.701 79.4477 400.377 79.4477Z" fill="#401B17"/>
</svg>
