<svg width="286" height="20" viewBox="0 0 286 20" fill="none" xmlns="http://www.w3.org/2000/svg">
<path d="M21.0381 16.4706L20.7438 16.7647C20.5967 16.6176 20.3025 16.3235 20.1554 16.3235C20.0082 16.3235 19.714 16.4706 19.5669 16.6176C16.9187 18.0882 14.1235 19.2647 11.1811 19.2647C5.2963 19.2647 0.14712 16.0294 0.14712 9.55882C9.23872e-07 3.23529 5.14918 0 11.034 0C13.6821 0 16.036 0.735294 18.2428 2.05882C18.8313 2.35294 19.2726 2.79412 19.8611 2.94118C20.1554 2.94118 20.4496 2.79412 20.5967 2.64706L20.8909 2.79412L18.2428 6.61765L17.8014 6.32353C17.8014 5.88235 17.8014 5.44118 17.5072 5.14706C15.7418 3.67647 13.3879 2.94118 11.1811 2.94118C7.20885 2.94118 3.8251 5.14706 3.8251 9.41177C3.8251 13.6765 7.35597 15.8824 11.1811 15.8824C14.1235 15.8824 17.8014 14.2647 17.8014 12.9412V12.7941L18.2428 12.6471L21.0381 16.4706Z" fill="#401B17"/>
<path d="M41.1934 3.67647C40.6049 3.82353 40.3107 4.11765 40.3107 4.70588V17.5C40.3107 18.0882 40.6049 18.3824 41.1934 18.5294V18.9706H35.75V18.5294C36.3385 18.3824 36.6327 18.0882 36.6327 17.5V6.17647H27.9527V17.5C27.9527 18.0882 28.394 18.3824 28.8354 18.5294V18.9706H23.392V18.5294C23.9805 18.3824 24.2747 18.0882 24.2747 17.5V4.70588C24.2747 4.11765 23.9805 3.82353 23.392 3.67647V3.38235H41.1934V3.67647Z" fill="#401B17"/>
<path d="M66.0566 18.5294C66.6451 18.3824 66.9393 18.0882 66.9393 17.5V4.85294C66.9393 4.26471 66.6451 3.97059 66.0566 3.82353V3.38235H71.5V3.67647C71.0586 3.97059 70.6173 4.26471 70.6173 4.85294V16.1765H77.9732V4.85294C77.9732 4.26471 77.679 3.97059 77.0905 3.82353V3.38235H82.6811V3.67647C82.0926 3.82353 81.7983 4.11765 81.7983 4.70588V16.1765H89.0072V4.85294C89.0072 4.26471 88.713 3.97059 88.1245 3.82353V3.38235H93.5679V3.67647C93.1265 3.97059 92.6852 4.26471 92.6852 4.85294V17.6471C92.6852 18.2353 93.1265 18.5294 93.5679 18.6765V19.1176H66.0566V18.5294Z" fill="#401B17"/>
<path d="M100.335 17.2059V17.6471C100.335 18.2353 100.777 18.5294 101.218 18.6765V19.1176H95.7747V18.6765C96.3632 18.5294 96.6574 18.2353 96.6574 17.6471V4.70588C96.6574 4.11765 96.3632 3.82353 95.7747 3.67647V3.38235H101.218V3.67647C100.777 3.82353 100.335 4.11765 100.335 4.70588V13.2353L109.015 5.29412V4.70588C109.015 4.11765 108.721 3.82353 108.133 3.67647V3.38235H113.576V3.67647C112.988 3.82353 112.693 4.11765 112.693 4.70588V17.5C112.693 18.0882 112.988 18.3824 113.576 18.5294V18.9706H108.133V18.5294C108.721 18.3824 109.015 18.0882 109.015 17.5V9.11765L100.335 17.2059Z" fill="#401B17"/>
<path d="M125.493 17.5C125.493 18.0882 125.787 18.3824 126.376 18.5294V18.9706H120.932V18.5294C121.373 18.3824 121.815 18.0882 121.815 17.5V6.17647H117.254C116.666 6.17647 116.371 6.47059 116.224 7.05882H115.93V2.5H116.224C116.224 2.94118 116.519 3.38235 117.107 3.38235H130.054C130.642 3.38235 130.936 2.94118 131.083 2.5H131.525V7.05882H131.083C130.936 6.47059 130.642 6.17647 130.054 6.17647H125.493V17.5Z" fill="#401B17"/>
<path d="M137.998 16.1765H147.855C148.443 16.1765 148.738 15.8824 148.885 15.2941H149.326V20H148.885C148.738 19.4118 148.443 19.1176 147.855 19.1176H133.29V18.6765C133.879 18.5294 134.173 18.2353 134.173 17.6471V4.85294C134.173 4.26471 133.879 3.97059 133.29 3.82353V3.38235H147.414C148.002 3.38235 148.296 3.08824 148.443 2.5H148.885V7.05882H148.591C148.443 6.47059 148.149 6.17647 147.561 6.17647H138.145V9.55882H144.03C144.618 9.55882 144.913 9.11765 145.06 8.67647H145.501V13.2353H145.06C144.913 12.6471 144.618 12.3529 144.03 12.3529H138.145V16.1765H137.998Z" fill="#401B17"/>
<path d="M179.044 13.5294C179.044 17.6471 175.513 18.9706 171.983 18.9706H159.183V18.5294C159.624 18.3823 160.066 18.0882 160.066 17.5V1.7647C160.066 1.17647 159.624 0.882348 159.183 0.73529V0.294113H171.835C175.072 0.294113 178.309 1.17647 178.309 5.29411C178.309 7.20588 177.426 8.38235 175.808 9.2647C177.867 10 179.044 11.4706 179.044 13.5294ZM171.394 7.64705C172.865 7.64705 174.336 7.35294 174.336 5.44117C174.336 3.52941 172.865 3.23529 171.394 3.23529H164.185V7.64705H171.394ZM171.1 15.8823C172.865 15.8823 174.925 15.5882 174.925 13.3823C174.925 11.1765 173.012 10.8823 171.1 10.8823H164.185V16.0294H171.1V15.8823Z" fill="#401B17"/>
<path d="M185.812 17.2059V17.6471C185.812 18.2353 186.253 18.5294 186.694 18.6765V19.1176H181.251V18.6765C181.84 18.5294 182.134 18.2353 182.134 17.6471V4.70588C182.134 4.11765 181.84 3.82353 181.251 3.67647V3.38235H186.694V3.67647C186.253 3.82353 185.812 4.11765 185.812 4.70588V13.2353L194.492 5.29412V4.70588C194.492 4.11765 194.198 3.82353 193.609 3.67647V3.38235H199.052V3.67647C198.464 3.82353 198.17 4.11765 198.17 4.70588V17.5C198.17 18.0882 198.464 18.3824 199.052 18.5294V18.9706H193.609V18.5294C194.198 18.3824 194.492 18.0882 194.492 17.5V9.11765L185.812 17.2059Z" fill="#401B17"/>
<path d="M219.502 20C219.355 19.4118 219.208 18.9706 218.619 18.9706H201.553C200.965 18.9706 200.818 19.4118 200.671 20H200.229V16.1765H202.142C203.76 13.2353 204.202 10.4412 204.202 6.47059V4.70588C204.202 4.11765 203.907 3.82353 203.319 3.67647V3.38235H218.619V3.67647C218.031 3.82353 217.737 4.11765 217.737 4.70588V16.1765H219.943V20H219.502ZM213.912 6.17647H207.88C207.88 10.2941 207.585 13.2353 206.114 16.1765H213.912V6.17647Z" fill="#401B17"/>
<path d="M253.781 17.5C253.781 18.0882 254.075 18.3824 254.664 18.5294V18.9706H249.22V18.5294C249.662 18.3824 250.103 18.0882 250.103 17.5V6.17647H245.542C244.954 6.17647 244.659 6.47059 244.512 7.05882H244.218V2.5H244.512C244.659 3.08824 244.954 3.38235 245.542 3.38235H258.489C259.077 3.38235 259.371 2.94118 259.519 2.5H259.96V7.05882H259.519C259.371 6.47059 259.077 6.17647 258.489 6.17647H253.928V17.5H253.781Z" fill="#401B17"/>
<path d="M271.729 8.82353C274.819 8.82353 278.35 9.70588 278.35 13.8235C278.35 18.0882 274.819 18.8235 271.729 18.8235H261.725V18.3824C262.314 18.2353 262.608 17.9412 262.608 17.3529V4.85294C262.608 4.26471 262.314 3.97059 261.725 3.82353V3.38235H267.169V3.67647C266.727 3.82353 266.286 4.11765 266.286 4.70588V8.82353H271.729ZM271.582 11.7647H266.286V16.1765H271.435C272.759 16.1765 274.378 16.0294 274.378 13.9706C274.525 11.9118 272.759 11.7647 271.582 11.7647Z" fill="#401B17"/>
<path d="M281.292 12.3529V11.9118C281.734 11.7647 282.175 11.4706 282.175 10.8823C282.175 10.7353 282.175 10.4412 282.175 10.2941L281.145 1.91176C280.998 1.17647 280.998 0.882349 280.262 0.73529V0.294113H286V0.73529C285.264 0.882349 285.117 1.17647 285.117 1.91176L284.087 10.2941C284.087 10.4412 284.087 10.7353 284.087 10.8823C284.087 11.6176 284.529 11.7647 284.97 11.9118V12.3529H281.292ZM283.205 19.1176C282.028 19.1176 280.998 18.0882 280.998 16.9118C280.998 15.7353 282.028 14.7059 283.205 14.7059C284.382 14.7059 285.412 15.7353 285.412 16.9118C285.412 18.2353 284.382 19.1176 283.205 19.1176Z" fill="#401B17"/>
<path d="M44.5772 6.17647C43.9887 6.17647 43.6944 6.47059 43.5473 7.05882H43.2531V2.5H43.5473C43.6944 3.08824 43.9887 3.38235 44.5772 3.38235H52.963V3.67647C52.5216 3.82353 52.0802 4.11765 52.0802 4.70588V8.82353H57.5237C60.6132 8.82353 63.9969 9.70588 63.9969 13.8235C63.9969 18.0882 60.6132 18.8235 57.5237 18.8235H47.3724V18.3824C47.9609 18.2353 48.2551 17.9412 48.2551 17.3529V6.17647H44.5772ZM57.3765 11.7647H52.0802V16.1765H57.3765C58.7006 16.1765 60.1718 16.0294 60.1718 13.9706C60.1718 11.9118 58.7006 11.7647 57.3765 11.7647Z" fill="#401B17"/>
<path d="M50.7562 3.38235H58.9949C59.5833 3.38235 59.8776 2.94118 60.0247 2.5H60.3189V7.05882H60.0247C59.8776 6.47059 59.5833 6.17647 58.9949 6.17647H52.3745" fill="#401B17"/>
<path d="M48.4023 13.0882V1.7647C48.4023 1.17647 48.108 0.882348 47.5195 0.73529V0.294113H52.963V0.588231C52.3745 0.73529 52.0802 1.02941 52.0802 1.61764V12.9412" fill="#401B17"/>
<path d="M222.739 6.17647C222.15 6.17647 221.856 6.47059 221.709 7.05882H221.415V2.5H221.709C221.856 3.08824 222.15 3.38235 222.739 3.38235H230.977V3.67647C230.536 3.82353 230.095 4.11765 230.095 4.70588V8.82353H235.538C238.628 8.82353 242.011 9.70588 242.011 13.8235C242.011 18.0882 238.628 18.8235 235.538 18.8235H225.387V18.3824C225.975 18.2353 226.27 17.9412 226.27 17.3529V6.17647H222.739ZM235.538 11.7647H230.242V16.1765H235.538C236.862 16.1765 238.333 16.0294 238.333 13.9706C238.48 11.9118 236.862 11.7647 235.538 11.7647Z" fill="#401B17"/>
<path d="M228.918 3.38235H237.156C237.745 3.38235 238.039 2.94118 238.186 2.5H238.48V7.05882H238.333C238.186 6.47059 237.892 6.17647 237.304 6.17647H230.683" fill="#401B17"/>
<path d="M226.564 13.0882V1.7647C226.564 1.17647 226.27 0.882348 225.681 0.73529V0.294113H231.272V0.588231C230.683 0.73529 230.389 1.02941 230.389 1.61764V12.9412" fill="#401B17"/>
</svg>
