<?xml version="1.0" encoding="utf-8"?>
<!-- Generator: Adobe Illustrator 23.1.0, SVG Export Plug-In . SVG Version: 6.00 Build 0)  -->
<svg version="1.1" id="Layer_1" xmlns="http://www.w3.org/2000/svg" xmlns:xlink="http://www.w3.org/1999/xlink" x="0px" y="0px"
	 viewBox="0 0 123 40" style="enable-background:new 0 0 123 40;" xml:space="preserve">
<style type="text/css">
	.st0{fill:#401B17;}
</style>
<g>
	<path class="st0" d="M7.4,13.2h6c0.9,0,1.5,0.1,2,0.3c-0.1-1.9-1.8-2.2-3.4-2.2H5.7v4.6h1.6V13.2z"/>
	<path class="st0" d="M17.6,5.4h-0.4c-0.1-0.5-0.4-0.8-0.9-0.8H5.7v4h1.6V6.4h10.4c0.2,0,0.5,0.1,0.6,0.6l0.1,0.2h0.8V2.4h-0.8
		l-0.1,0.2c-0.2,0.6-0.4,0.6-0.6,0.6h-0.1V5.4z"/>
	<path class="st0" d="M18.4,10.9c0.5,0.7,0.8,1.6,0.8,2.6c0,4-3.1,5.2-6.3,5.2H3.2v0.3c0,0.2-0.1,0.5-0.6,0.6l-0.2,0.1v0.8h11.8
		c1.6,0,3.8-0.3,5.2-1.7c0.9-0.9,1.4-2.2,1.4-3.7C20.8,13.3,19.9,11.8,18.4,10.9z"/>
</g>
<g>
	<path class="st0" d="M109.9,13.2h5.4c0.8,0,1.4,0.1,1.9,0.3c-0.1-1.8-1.8-2.2-3.3-2.2h-5.7V16h1.6V13.2z"/>
	<path class="st0" d="M108.3,8.6h1.6V4.7c0-0.3,0.3-0.5,0.4-0.6l0.4-0.1V3.2h-2.4V8.6z"/>
	<path class="st0" d="M104.6,4.6h-3.7c-0.1,0-0.1,0-0.2,0v2.7h0.9l0-0.2c0.1-0.4,0.3-0.6,0.6-0.6h2.3V4.6z"/>
	<path class="st0" d="M120.7,11.1c-0.2-0.1-0.4-0.2-0.5-0.3c0.5,0.9,0.8,1.9,0.8,2.9c0,1.5-0.6,3-1.8,4c-1.4,1-3.2,1.1-4.9,1.1h-8.6
		v0.3c0,0.2-0.1,0.5-0.6,0.6l-0.2,0.1v0.8h10.8c1.8,0,3.6-0.1,5-1.2c1.2-0.9,1.9-2.4,1.9-4.2C122.6,13.9,122.1,12.1,120.7,11.1z"/>
</g>
<path class="st0" d="M12.8,19.2H0.8V18l0.4-0.1c0.4-0.1,0.4-0.3,0.4-0.4V3.1c0-0.1,0-0.3-0.4-0.4L0.8,2.6V1.3h15.6
	c0.1,0,0.3,0,0.4-0.5l0.1-0.4h1.3v5.4h-1.3l-0.1-0.4c-0.1-0.5-0.3-0.5-0.4-0.5H6.2v3h6.2c4.4,0,7.2,2.1,7.2,5.5
	c0,1.6-0.5,2.9-1.4,3.9C16.8,18.9,14.5,19.2,12.8,19.2z M2.3,18.2h10.5c1.5,0,3.5-0.3,4.7-1.5c0.8-0.8,1.1-1.8,1.1-3.2
	c0-2.9-2.3-4.6-6.2-4.6H5.2v-5h11.1c0.2,0,0.5,0.1,0.8,0.2V2.1c-0.3,0.2-0.5,0.2-0.8,0.2h-14c0.2,0.2,0.2,0.5,0.2,0.8v14.4
	C2.6,17.7,2.5,18,2.3,18.2z M12,16.5l-6.8,0v-5.6H12c1,0,3.9,0,3.9,2.8S13.1,16.5,12,16.5z M6.2,15.4l6.3,0c1.7-0.1,2.4-0.6,2.4-1.8
	c0-1.3-0.8-1.8-2.9-1.8H6.2V15.4z"/>
<path class="st0" d="M114.3,19.2h-11.1V18l0.4-0.1c0.4-0.1,0.4-0.3,0.4-0.4V5.1h-3.2c-0.1,0-0.3,0-0.4,0.4l-0.1,0.4h-1.3V0.5h1.3
	l0.1,0.4c0.1,0.4,0.3,0.4,0.4,0.4h8.7v1.4h-0.5c-0.4,0.1-0.4,0.3-0.4,0.4v5h5.6c1.9,0,3.6,0.1,5.2,1.2c1.5,1.1,2,3,2,4.4
	c0,1.8-0.7,3.4-2,4.4C118,19.2,116.1,19.2,114.3,19.2z M104.8,18.2h9.5c1.7,0,3.3-0.1,4.6-1c1-0.7,1.6-2.1,1.6-3.6
	c0-1.5-0.6-2.9-1.6-3.6c-1.3-0.9-2.9-1-4.6-1h-6.6v-6c0-0.2,0.1-0.5,0.2-0.8h-7.1c-0.2,0-0.5-0.1-0.8-0.2v2.3
	c0.3-0.2,0.6-0.2,0.8-0.2h4.2v13.4C105.1,17.7,105,18,104.8,18.2z M114.2,16.5h-6.5v-5.6h6.2c3.3,0,3.8,1.8,3.8,2.8
	C117.7,15.5,116.5,16.5,114.2,16.5z M108.8,15.5h5.5c2.2,0,2.5-0.9,2.5-1.8c0-0.5,0-1.8-2.8-1.8h-5.2V15.5z"/>
<path class="st0" d="M98.2,2.4l0,0.2c0,0.2-0.1,0.4-0.2,0.5V0.5h-1.3l-0.1,0.4c-0.1,0.4-0.2,0.4-0.4,0.4H82c-0.2,0-0.3,0-0.4-0.4
	l-0.1-0.4h-1.3v5.4h1.3l0.1-0.4c0.1-0.3,0.1-0.4,0.2-0.4v2.2h0.9l0-0.2c0.1-0.4,0.3-0.6,0.6-0.6h3.4v11c0,0,0,0,0,0.1
	c0.3,0.2,0.5,0.4,0.8,0.7c0.2-0.2,0.2-0.5,0.2-0.7V4.1H82c-0.2,0-0.5,0-0.8,0.2V2.1c0.2,0.1,0.4,0.2,0.8,0.2h14.2
	c0.2,0,0.5,0,0.8-0.2v2.2c-0.2-0.1-0.4-0.2-0.8-0.2h-5.7l0,13.4c0,0.2,0,0.5,0.2,0.8h-3c0.4,0.4,0.7,0.8,1,1.3
	c0.2,0.3,0.4,0.7,0.6,1.1h4.2v-0.9l-0.2,0c-0.3-0.1-0.5-0.2-0.6-0.4V6.4h5c0.3,0,0.5,0.2,0.6,0.6l0.1,0.2h0.8V2.4H98.2z"/>
<g>
	<path class="st0" d="M77.8,14.7l-0.1,0.4c0,0.1,0,0.1,0,0.1c0.3,0,0.5,0,0.8,0c0.2,0,0.4,0,0.6,0v-0.5H77.8z"/>
	<path class="st0" d="M61.8,17.9L61.5,18v0.3c0.6-0.2,1.2-0.4,1.8-0.6c0-0.1,0-0.2,0-0.2V3.1c0-0.3-0.1-0.6-0.2-0.8h14
		c0.2,0,0.5-0.1,0.8-0.2v2.3c-0.3-0.2-0.6-0.3-0.8-0.3H65.9v5h7.4c0.2,0,0.5,0,0.8-0.2V11c-0.2-0.2-0.5-0.2-0.8-0.2h-7.4v5.7h1.8
		c1.8-0.4,3.7-0.8,5.7-1H68v-2.3h6.6c0.2,0,0.5,0.1,0.6,0.6l0.1,0.2h0.8V9.2h-0.9l0,0.2c0,0.2-0.1,0.4-0.2,0.5V7.3h-1.3l-0.1,0.4
		c-0.1,0.4-0.2,0.4-0.4,0.4H68V6.4h10.4c0.2,0,0.5,0.1,0.6,0.6l0.1,0.2h0.8V2.4h-0.8L79,2.6C79,2.8,78.9,2.9,78.8,3V0.5h-1.3
		l-0.1,0.4c-0.1,0.4-0.3,0.4-0.4,0.4H61.5v1.3l0.4,0.1c0.4,0.1,0.4,0.2,0.4,0.4v14.4C62.3,17.6,62.3,17.7,61.8,17.9z"/>
</g>
<path class="st0" d="M42,19.2v1.4h1.3c1.8,0,3-0.6,4.1-2.1c1-1.3,1.1-4.2,1.1-5.8V6.4h6.4v11c0,0.1,0,0.3-0.4,0.4l-0.4,0.1v1.3h2.4
	c0,0.2-0.2,0.4-0.6,0.5l-0.2,0.1v0.7c1.6-0.6,3.2-1.3,5-1.9V4.7c0-0.2,0.1-0.5,0.6-0.6L61.5,4V3.2h-1.9V3.1c0-0.1,0-0.3,0.4-0.4
	l0.4-0.1V1.3H41.9v1.3l0.4,0.1c0.4,0.1,0.4,0.3,0.4,0.4v9.8c0,1.7-0.5,2.3-0.9,2.3c0,0,0-0.1-0.1-0.2l-0.1-0.4h-1.4l0.3,4.7L42,19.2
	C41.9,19.2,42,19.2,42,19.2z M41.3,16.1c0.1,0.1,0.3,0.1,0.4,0.1c0.9,0,2-0.9,2-3.3V3.1c0-0.2-0.1-0.5-0.2-0.8h15.3
	c-0.2,0.2-0.2,0.5-0.2,0.8v14.4c0,0.3,0.1,0.6,0.2,0.8h-3.2c0.2-0.3,0.2-0.5,0.2-0.8V4.1h-9.5v7c0,2.6-0.4,4.5-1,5.4
	c-1,1.3-2,1.8-3.5,1.8h-0.5V16.1z"/>
<path class="st0" d="M35.5,39.9c-6.4,0-8.4-3.2-8.8-4.2c0-0.1-0.1-0.2-0.1-0.3c-0.3-0.5-0.6-1.2-0.3-2.3c0.2-0.9,0.4-6.3,0.4-7.6
	l0-0.7c0-1.2,0-2.7,0.2-3.5c0.1-0.2,0.3-0.4,0.6-0.3c0.2,0,0.4,0.2,0.4,0.5c0,2.1,0.7,3.5,2,4.4c3,2,9.1,1,18.4-2.8
	c1-0.4,2-0.9,3.2-1.4c6.9-3,16.4-7.1,27.1-7.1c4,0,8.7,1.4,10.5,4.6c1.8,3.1,3.4,8.5,3.6,9.2c0.2,0.8,0.2,1.4-0.2,2
	c-0.1,0.2-0.4,0.2-0.6,0.2c-0.2-0.1-0.3-0.3-0.3-0.5c0-0.8-3-2.7-8.5-2.7c-11.3,0-19.2,3.2-31.3,8.4C48.8,37,42.2,39.9,35.5,39.9z
	 M27.5,24.9c0,0.2,0,0.4,0,0.6c0,0.9-0.1,6.7-0.4,7.9c-0.2,0.7,0,1,0.2,1.5c0.1,0.1,0.1,0.2,0.2,0.3c0.4,0.9,2.2,3.6,7.9,3.6
	c6.5,0,13-2.8,15.7-4c0,0,0,0,0,0c12.3-5.3,20.5-8.4,31.7-8.4c4.1,0,7.3,1,8.7,2.3c0,0,0,0,0-0.1c-0.2-0.6-1.8-5.9-3.5-8.9
	c-1.6-2.8-6.1-4.1-9.6-4.1c-10.5,0-19.9,4.1-26.7,7c-1.2,0.5-2.2,1-3.2,1.4c-9.6,3.9-16.1,4.8-19.3,2.7
	C28.5,26.3,27.9,25.7,27.5,24.9z"/>
<path class="st0" d="M29,26.2c-0.1,0-0.2,0-0.2-0.1c-1.6-1.6-2.3-3.5-1.8-5c0.4-1.2,1.4-2,2.7-2.3c0.4-0.1,0.8-0.1,1.1-0.2
	c1.3-0.2,2.2-0.4,3-0.9c0.8-0.5,0.9-1.6,0.3-3.5c0-0.1,0-0.3,0.2-0.4c0.1-0.1,0.3,0,0.4,0.1c1.1,1.5,1.5,3,1.3,4.5
	c-0.3,1.6-1.3,2.7-2.1,3.3c-0.8,0.5-2.2,0.9-3.2,1.2c-0.4,0.1-0.8,0.2-1,0.3c-0.3,0.1-0.5,0.3-0.6,0.6c-0.2,0.5-0.1,1.2,0.3,1.9
	c0.1,0.1,0,0.3-0.1,0.4C29.1,26.2,29,26.2,29,26.2z M35,16.1c0,0.9-0.2,1.7-0.9,2.2c-0.9,0.6-1.9,0.7-3.3,0.9
	c-0.3,0.1-0.7,0.1-1.1,0.2c-1.1,0.2-1.9,0.9-2.2,1.8c-0.3,1-0.1,2.1,0.7,3.2c0-0.3,0-0.6,0.1-0.8c0.2-0.5,0.5-0.8,0.9-1
	c0.3-0.1,0.6-0.2,1.1-0.3c1-0.3,2.3-0.6,3.1-1.1c0.7-0.4,1.6-1.5,1.8-2.9C35.4,17.7,35.3,16.9,35,16.1z"/>
<g>
	<path class="st0" d="M22.5,19.7l-0.2,0.1v0.8h5.2c0.2-0.3,0.4-0.5,0.6-0.7v-0.2l-0.2,0c-0.5-0.1-0.6-0.4-0.6-0.6v-0.4l7.6-7.2v1.4
		c0.3,0,0.6,0.1,1,0.4V6.5L25.2,16.7v0.7c0,0.3,0.1,0.6,0.2,0.8h-3.1c0.2-0.3,0.2-0.5,0.2-0.8V3.1c0-0.2-0.1-0.5-0.2-0.8h3.1
		c-0.2,0.2-0.2,0.5-0.2,0.8v10.8L36,3.7V3.1c0-0.2-0.1-0.5-0.2-0.8h3.1c-0.2,0.2-0.2,0.5-0.2,0.7v12.6c1.2,1.5,2.1,3.5,2.1,3.5
		s0,0,0-0.1V4.7c0-0.2,0.1-0.5,0.6-0.6L41.6,4V3.2h-1.9V3.1c0-0.1,0-0.3,0.4-0.4l0.4-0.1V1.3h-6.3v1.2l0.4,0.1C35,2.8,35,3,35,3.1
		v0.2l-7.6,7.2V4.7c0-0.2,0.1-0.5,0.6-0.6L28.1,4V3.2h-1.9V3.1c0-0.1,0-0.3,0.4-0.4L27,2.6V1.3h-6.3v1.3l0.4,0.1
		c0.4,0.1,0.4,0.3,0.4,0.4v14.4c0,0.1,0,0.3-0.4,0.4l-0.4,0.1v1.3h2.4C23.1,19.4,23,19.6,22.5,19.7z"/>
	<path class="st0" d="M35,15.3c0.7,1.3,0.7,2.5,0.5,3.5C35.9,17.7,35.7,16.4,35,15.3z"/>
</g>
<path class="st0" d="M38,27.2c-0.1,0-0.2,0-0.2-0.1c-0.1-0.1-0.1-0.2-0.1-0.3c0.6-2.3-0.7-5.8-2.7-6.9c-0.1,0-0.1-0.1-0.2-0.2
	c0-0.1,0-0.2,0-0.2c0.9-1.5,0.7-3.3-0.5-4.5c0,0,0-0.1-0.1-0.1c-0.3-0.7-0.6-1.3-0.2-1.9c0.1-0.2,0.3-0.3,0.6-0.4
	c0.5-0.1,1.2,0.2,1.9,0.8c4.6,3.4,6.1,9,5.3,12.7c0,0.1-0.1,0.2-0.2,0.2C40.6,26.6,38.6,27.1,38,27.2C38,27.2,38,27.2,38,27.2z
	 M35.5,19.5c1.9,1.2,3.2,4.5,2.8,6.9c0.8-0.2,2.1-0.5,2.9-0.8c0.7-3.4-0.8-8.7-5.1-11.9c-0.9-0.7-1.3-0.7-1.4-0.6
	c-0.1,0-0.2,0.1-0.2,0.1c0,0,0,0,0,0c-0.2,0.3-0.1,0.7,0.2,1.3C36.1,15.9,36.4,17.9,35.5,19.5z M34.3,13.1L34.3,13.1L34.3,13.1z"/>
<path class="st0" d="M88.7,34.4c-0.1,0-0.2-0.1-0.3-0.2c-1-2-1.1-5.1-1-6.8c0-0.1,0-0.2,0.1-0.2c0.1-0.1,0.2-0.1,0.3-0.1
	c2.2,0.5,4.6,1.8,4.5,2.9c-0.1,0.9-0.9,1.1-1.7,1.3l-0.4,0.1c-1,0.2-1.4,1.2-1.2,2.6C89,34.2,88.9,34.4,88.7,34.4
	C88.7,34.4,88.7,34.4,88.7,34.4z M88,27.9c0,1.1,0,3,0.4,4.6c0.2-0.8,0.8-1.4,1.6-1.6l0.4-0.1c0.9-0.2,1.2-0.3,1.3-0.8
	C91.7,29.6,90.2,28.5,88,27.9z"/>
<path class="st0" d="M93.9,37.5c-3.5,0-5.9-1.7-5.9-4.1c0-2.2,1.6-2.7,2.1-2.8c0.2,0,0.3-0.1,0.5-0.1c0.4,0,0.7-0.1,1-0.8
	c0.3-1.1-0.2-2.4-0.8-3.7c-0.4-0.9-0.7-1.7-0.8-2.4c0,0,0-0.1,0-0.1v0c0-0.2,0.1-0.3,0.2-0.4c0.1-0.1,0.3-0.1,0.5,0
	c1.8,0.7,4.4,0,5.9-1.7c0.2-0.2,0.4-0.2,0.6-0.1s0.3,0.4,0.2,0.6c-0.4,0.8-1.5,3.5-0.2,5.6c0.5,0.8,1.4,1.6,2.1,1.6
	c0.4,0,0.7-0.2,0.9-0.5c0.1-0.2,0.4-0.2,0.6-0.2c0.2,0.1,0.3,0.3,0.3,0.5c0,0.4,0,0.7,0,1.1c0,1.4,0.1,2.9-0.9,4.3
	C98.9,36.3,96.5,37.5,93.9,37.5z M91.1,24.2c0.2,0.5,0.4,0.9,0.6,1.4c0.6,1.5,1.3,3,0.8,4.4c-0.4,1.3-1.3,1.4-1.8,1.5
	c-0.1,0-0.2,0-0.3,0c-0.5,0.1-1.4,0.4-1.4,1.9c0,2.1,2.5,3.1,4.9,3.1c2.2,0,4.3-1.1,5.5-2.8c0.8-1.1,0.7-2.4,0.7-3.7
	c0,0,0-0.1,0-0.1c-0.3,0.1-0.6,0.2-0.9,0.2c-1.2-0.1-2.4-1.1-3-2.1c-0.8-1.3-0.9-3-0.5-4.8C94.4,24.1,92.7,24.5,91.1,24.2z"/>
<g>
	<path class="st0" d="M36.2,32.7v3.8l-1.3,0.1v-7l1.3-0.1v2.3l2.1-0.1v-2.3l1.3-0.1v7l-1.3,0.1v-3.8L36.2,32.7z"/>
</g>
<g>
	<path class="st0" d="M43.2,28.3c1-0.3,1.9-0.2,2,1.3l0.6,5l-1.2,0.4l-0.4-3.4l-1.9,0.6l-0.1,3.6l-1.2,0.4l0.3-7.1L43.2,28.3z
		 M44.1,30.5c-0.1-1-0.3-1.4-1.1-1.2l-0.6,0.2l0,1.5L44.1,30.5z"/>
</g>
<g>
	<path class="st0" d="M49.3,25.9l4.2-1.8v7l-1.2,0.5v-6l-1.8,0.8v6l-1.2,0.5L49.3,25.9L49.3,25.9z"/>
</g>
<g>
	<path class="st0" d="M56.8,22.5c1.5-0.6,2.3,0.5,2.3,2.7c0,2.2-0.8,4-2.3,4.7c-1.5,0.6-2.2-0.6-2.2-2.8v0
		C54.5,25,55.4,23.1,56.8,22.5z M55.7,26.7c0,1.4,0.3,2.5,1.1,2.2c0.7-0.3,1.1-1.6,1.1-3.1c0-1.5-0.3-2.5-1.1-2.1
		C56.1,23.9,55.7,25.2,55.7,26.7z"/>
</g>
<g>
	<path class="st0" d="M60.2,21.4l3.7-1.3v1L61.4,22v1.4l2-0.7v1l-2,0.7v2.5l2.4-0.9v1l-3.7,1.3L60.2,21.4L60.2,21.4z"/>
</g>
<g>
	<path class="st0" d="M68.5,20.4c0,0.8-0.4,1.5-0.8,1.7c0.5,0.1,1.2,0.5,1.2,1.6c0,1.4-1.4,3-4.2,3.2v-1.2c1.6,0.1,3-0.8,3-1.7
		c0-0.8-0.8-1.2-2-0.6v-1c1.5-0.4,1.7-1.1,1.6-1.6c0-0.5-1.2-0.7-2.5,0v-1.1C66.3,18.9,68.5,18.8,68.5,20.4z"/>
</g>
<g>
	<path class="st0" d="M70.6,18.2l1.7-0.3c1.7-0.3,2,0.6,2.1,1.1l0.6,4.5l0.6-0.1v1.5l-1.3,0.2v-0.5l-3.6,0.6v0.5l-1.3,0.2v-1.5
		c0.3-0.1,0.9-0.3,0.9-1.3L70.6,18.2z M71.8,19l-0.2,4c-0.1,0.8-0.2,1-0.3,1.2l2.3-0.4l-0.5-3.6C73.2,18.8,72.7,18.8,71.8,19z"/>
</g>
<g>
	<path class="st0" d="M78.7,19.4c0.9-0.8,2.7-0.5,2.6,2.2c0,0.7-0.3,2.8-2.5,2.7l-1.4,0v-6l-1.2,0v-1l2.5,0V19.4z M78.6,23.4
		c0.7,0.1,1.3-0.5,1.3-2.1c0-0.8-0.3-1.2-0.6-1.2c-0.5,0-0.7,0.4-0.7,1.1L78.6,23.4L78.6,23.4z"/>
</g>
</svg>
