<?xml version="1.0" encoding="utf-8"?>
<!-- Generator: Adobe Illustrator 25.4.1, SVG Export Plug-In . SVG Version: 6.00 Build 0)  -->
<svg version="1.1" id="Layer_1" xmlns="http://www.w3.org/2000/svg" xmlns:xlink="http://www.w3.org/1999/xlink" x="0px" y="0px"
	 viewBox="0 0 214.8 93" style="enable-background:new 0 0 214.8 93;" xml:space="preserve">
<style type="text/css">
	.st0{fill:#401B17;}
	.st1{fill:#FFFFFF;stroke:#401B17;stroke-miterlimit:10;}
	.st2{fill:#FFFFFF;stroke:#401B17;stroke-width:0.6075;stroke-linecap:round;stroke-linejoin:round;}
</style>
<g>
	<path class="st0" d="M25.4,56.2H5.2v-0.8c0.8-0.3,1.4-0.7,1.4-1.6V26.9c0-0.9-0.6-1.4-1.4-1.6v-0.7h26.4c0.9,0,1.3-0.6,1.5-1.5h0.7
		v8.2h-0.7c-0.2-0.9-0.6-1.5-1.5-1.5H13V37h11.8c7.3,0,11.7,3.6,11.7,9.4C36.5,54,31,56.2,25.4,56.2z M24,51c2.9,0,6-0.5,6-4.4
		c0-3.8-3.1-4.4-6-4.4H13V51H24L24,51z"/>
	<path class="st0" d="M47.9,52.8v0.9c0,0.9,0.5,1.5,1.4,1.6v0.8h-9.2v-0.8c0.8-0.3,1.4-0.7,1.4-1.6V26.9c0-0.9-0.6-1.4-1.4-1.6v-0.7
		h9.2v0.7c-0.8,0.3-1.4,0.7-1.4,1.6v18L65,27.7V27c0-0.9-0.6-1.4-1.4-1.6v-0.8h9.2v0.7C72,25.6,71.4,26,71.4,27v26.8
		c0,0.9,0.6,1.5,1.4,1.6v0.8h-9.3v-0.8c0.8-0.3,1.4-0.7,1.4-1.6V35.6L47.9,52.8z"/>
	<path class="st0" d="M77.1,24.6h30.5v0.7c-0.8,0.3-1.4,0.7-1.4,1.6v26.8c0,0.9,0.6,1.5,1.4,1.6v0.8h-9.3v-0.8
		c0.8-0.3,1.4-0.7,1.4-1.6v-24H84.9v12.2c0,4.4-0.5,8.6-1.9,10.6c-1.8,2.6-3.8,3.7-6.8,3.7h-1.8v-6.9h0.8c0.1,0.7,0.3,1.2,0.8,1.2
		c1.1,0,2.5-1.2,2.5-5.3V26.9c0-0.9-0.6-1.4-1.4-1.6C77.1,25.3,77.1,24.6,77.1,24.6z"/>
	<path class="st0" d="M119,51h19c0.9,0,1.4-0.6,1.6-1.5h0.6v8.2h-0.7c-0.2-0.9-0.6-1.5-1.6-1.5h-26.8v-0.8c0.8-0.3,1.4-0.7,1.4-1.6
		V26.9c0-1-0.6-1.4-1.4-1.6v-0.7h26.4c0.9,0,1.3-0.6,1.5-1.5h0.7v8.2H139c-0.2-0.9-0.6-1.5-1.5-1.5h-18.6v7.5h12
		c0.9,0,1.4-0.6,1.5-1.5h0.7v8h-0.7c-0.2-0.9-0.6-1.5-1.5-1.5h-12L119,51L119,51z"/>
	<path class="st0" d="M161.7,53.7c0,1,0.6,1.5,1.4,1.6v0.8h-9.2v-0.8c0.8-0.3,1.4-0.7,1.4-1.6v-24h-9.2c-0.9,0-1.4,0.6-1.5,1.5h-0.7
		V23h0.7c0.2,0.9,0.6,1.5,1.5,1.5h24.8c0.9,0,1.4-0.6,1.5-1.5h0.7v8.2h-0.7c-0.2-0.9-0.6-1.5-1.5-1.5h-9.2V53.7L161.7,53.7z"/>
	<path class="st0" d="M193.5,25.3c-0.8,0.3-1.4,0.7-1.4,1.6v10.3h10.6c3,0,6,0.1,8.5,2c2.1,1.6,3.1,4.7,3.1,7.5s-1,5.7-3.1,7.4
		c-2.4,2-5.6,2.1-8.5,2.1h-18.4v-0.8c0.8-0.3,1.4-0.7,1.4-1.6V29.7h-6.5c-0.9,0-1.4,0.6-1.5,1.5h-0.9V23h0.7
		c0.2,0.9,0.6,1.5,1.5,1.5h14.4L193.5,25.3L193.5,25.3z M201.9,42.3H192V51h10.4c2.7,0,5.3-0.8,5.3-4.3
		C207.7,43.1,204.6,42.3,201.9,42.3z"/>
	<path class="st1" d="M23,53.2H2.8v-0.8c0.8-0.3,1.4-0.7,1.4-1.6V23.9c0-0.9-0.6-1.4-1.4-1.6v-0.8h26.4c0.9,0,1.3-0.6,1.5-1.5h0.7
		v8.2h-0.7c-0.2-0.9-0.6-1.5-1.5-1.5H10.6v7.4h11.8c7.3,0,11.7,3.6,11.7,9.4C34.1,51,28.6,53.2,23,53.2z M21.6,48c2.9,0,6-0.5,6-4.4
		c0-3.8-3.1-4.4-6-4.4h-11v8.7L21.6,48L21.6,48z"/>
	<path class="st1" d="M45.5,49.8v0.9c0,0.9,0.5,1.5,1.4,1.6v0.8h-9.2v-0.8c0.8-0.3,1.4-0.7,1.4-1.6V23.9c0-0.9-0.6-1.4-1.4-1.6v-0.8
		h9.2v0.7c-0.8,0.3-1.4,0.7-1.4,1.6v18l17-17.2v-0.7c0-0.9-0.6-1.4-1.4-1.6v-0.7h9.3v0.6c-0.8,0.3-1.4,0.7-1.4,1.6v26.8
		c0,0.9,0.6,1.5,1.4,1.6V53h-9.3v-0.8c0.8-0.3,1.4-0.7,1.4-1.6V32.5L45.5,49.8z"/>
	<path class="st1" d="M74.7,21.5h30.5v0.7c-0.8,0.3-1.4,0.7-1.4,1.6v26.8c0,0.9,0.6,1.5,1.4,1.6V53h-9.3v-0.8
		c0.8-0.3,1.4-0.7,1.4-1.6v-24H82.4v12.2c0,4.4-0.5,8.6-1.9,10.6c-1.8,2.6-3.8,3.7-6.8,3.7h-1.8v-6.9h0.9c0.1,0.7,0.3,1.2,0.8,1.2
		c1.1,0,2.5-1.2,2.5-5.3V23.9c0-0.9-0.6-1.4-1.4-1.6V21.5z"/>
	<path class="st1" d="M116.6,48h19c0.9,0,1.4-0.6,1.6-1.5h0.7v8.2h-0.7c-0.2-0.9-0.6-1.5-1.6-1.5h-26.8v-0.8
		c0.8-0.3,1.4-0.7,1.4-1.6V23.9c0-1-0.6-1.4-1.4-1.6v-0.8h26.4c0.9,0,1.3-0.6,1.5-1.5h0.7v8.2h-0.8c-0.2-0.9-0.7-1.5-1.5-1.5h-18.6
		v7.5h12c0.9,0,1.4-0.6,1.5-1.5h0.7v8H130c-0.2-0.9-0.7-1.5-1.5-1.5h-12V48H116.6z"/>
	<path class="st1" d="M159.3,50.7c0,1,0.6,1.5,1.4,1.6v0.8h-9.2v-0.8c0.8-0.3,1.4-0.7,1.4-1.6V26.6h-9.2c-0.9,0-1.4,0.6-1.5,1.5
		h-0.7V20h0.7c0.2,0.9,0.6,1.5,1.5,1.5h24.8c0.9,0,1.4-0.6,1.5-1.5h0.7v8.2H170c-0.2-0.9-0.6-1.5-1.5-1.5h-9.2V50.7L159.3,50.7z"/>
	<path class="st1" d="M191,22.2c-0.8,0.3-1.4,0.7-1.4,1.6v10.3h10.6c3,0,6,0.1,8.5,2c2.1,1.6,3.1,4.7,3.1,7.5c0,2.8-1,5.7-3.1,7.4
		c-2.4,2-5.6,2.1-8.5,2.1h-18.4v-0.8c0.8-0.3,1.4-0.7,1.4-1.6v-24h-6.5c-0.9,0-1.4,0.6-1.5,1.5h-0.7V20h0.7c0.2,0.9,0.6,1.5,1.5,1.5
		h14.4L191,22.2L191,22.2z M199.5,39.3h-9.9V48H200c2.7,0,5.3-0.8,5.3-4.3C205.3,40.1,202.1,39.3,199.5,39.3z"/>
	<path class="st2" d="M90.4,84.2c-6,2.8-16.8,7.5-27.8,7.5s-14.1-6.1-14.7-7.3c-0.5-1.2-1.3-2.2-0.8-4.1s0.7-12.4,0.7-14.4
		s-0.2-6,0.4-7.5C48.4,75,68.3,69.5,85,62.3c11.7-5.1,30.9-15.8,52.6-15.8c6.4,0,14.7,2.5,17.6,8.1c3,5.6,5.9,15.6,6.2,16.9
		c0.3,1.4,0.3,2.2-0.2,3c-0.1-2.3-5.9-6-15.8-6C125.5,68.5,110.9,74.8,90.4,84.2z"/>
	<path class="st2" d="M51.2,66.6c-1.4-2.5-0.8-4.9,0.7-5.4c1.5-0.6,5.4-1.3,7.3-2.7c2.5-1.7,5.9-7.2,1.4-13.7
		c0.9,3.2,1.1,5.8-0.7,7.2c-1.8,1.3-4.1,1.4-7.4,2C47.7,54.9,45.9,60.9,51.2,66.6z"/>
	<path class="st2" d="M61.1,46c-0.4-0.9-1.1-2.2-0.4-3.4c-0.8,0.8-1.2,2.1-1.1,3.4c0.1,1.6-0.2,4.9-1.3,6.8
		C60.9,52.3,62.2,48.7,61.1,46z"/>
	<path class="st2" d="M60.6,42.7c0.5-0.8,1.8-0.7,3.6,0.8c7.4,6,10.5,16,9,23.2c-1.8,0.7-5.2,1.5-6.3,1.7c1.2-4.6-1.4-11.5-5-13.5
		c1.5-2.8,1.4-6.5-0.9-9.1C60.5,44.5,60.1,43.5,60.6,42.7z"/>
	<path class="st0" d="M49.1,62c-0.6-2.1-0.6-4.1,0.1-5.1C48.9,58.4,48.8,60.2,49.1,62z"/>
	<path class="st0" d="M49.5,63.3c-0.1-0.3-0.4-0.9-0.4-0.9c-0.2-2.3-0.1-4.9,0.2-6c0.3-0.4,0.4-0.5,0.5-0.7
		C49.5,57.7,49.3,60.8,49.5,63.3z"/>
	<path class="st0" d="M49.7,63.6c0,0,0.2,0.5,0.4,0.8c-0.2-2.5,0.1-7,0.6-9.1c-0.4,0.2-0.5,0.4-0.5,0.4
		C49.8,57.8,49.5,60.8,49.7,63.6z"/>
	<path class="st0" d="M50.1,62.8c0.1-0.3,0.2-0.7,0.4-0.9c0.1-2,0.4-4.9,0.7-6.9C50.4,57.1,50.2,59.6,50.1,62.8z"/>
	<path class="st0" d="M50.7,61.6c0.1-0.2,0.4-0.5,0.4-0.5c0-1.3,0.4-3.9,0.8-6C51.3,56.6,50.7,59.3,50.7,61.6z"/>
	<path class="st0" d="M51.4,60.8c0.3-0.2,0.5-0.3,0.5-0.3c0.1-1.5,0.2-3.2,0.6-5C51.8,57.3,51.5,59.1,51.4,60.8z"/>
	<path class="st0" d="M53.3,55.8c-0.4,1.2-0.7,3.7-0.8,4.6c-0.2,0.1-0.4,0.1-0.4,0.1C52.2,59.4,52.6,57.5,53.3,55.8z"/>
	<path class="st0" d="M54.2,56c-0.3,0.8-0.8,3.6-0.8,4.2c-0.2,0.1-0.4,0.1-0.4,0.1C53.1,58.9,53.7,57,54.2,56z"/>
	<path class="st0" d="M55.1,56.2c-0.3,0.9-0.8,3.1-0.8,3.8c-0.2,0.1-0.4,0.1-0.4,0.1C54,58.7,54.7,57.2,55.1,56.2z"/>
	<path class="st0" d="M55.8,56.6c-0.2,0.6-0.6,2.5-0.6,3.2c-0.1,0.1-0.5,0.1-0.5,0.1C54.9,58.8,55.5,57.4,55.8,56.6z"/>
	<path class="st0" d="M67.7,66.4c1.2-0.6,3.7-2,5.2-3.2c0,0.3-0.1,0.6-0.1,0.6c-1.4,1.2-4,2.8-5.2,3.4
		C67.7,66.9,67.7,66.4,67.7,66.4z"/>
	<path class="st0" d="M67.7,67.5c1.6-0.8,4-2.2,5.2-3.3c0,0.3-0.1,0.7-0.1,0.7c-2.1,1.5-3.3,2.2-4.3,2.8c0,0-0.6,0.2-0.8,0.3
		C67.7,67.7,67.7,67.5,67.7,67.5z"/>
	<path class="st0" d="M69.4,67.3c0.4-0.1,1.2-0.3,1.5-0.4c1-0.6,1.9-1.1,1.9-1.1c0.1-0.3,0.1-0.6,0.1-0.6
		C71.6,66.1,70.7,66.7,69.4,67.3z"/>
	<path class="st0" d="M67.7,65.4c0,0.2,0,0.6,0,0.6c1.6-0.9,3.1-1.9,5.2-3.5c0-0.2-0.1-0.5-0.1-0.5C71.5,63.2,68.9,64.8,67.7,65.4z"
		/>
	<path class="st0" d="M67.7,64.2c0,0,0.1,0.4,0.1,0.5c1.3-0.8,4-2.5,5.1-3.5c0-0.2-0.1-0.3-0.1-0.3C71.5,61.9,68.8,63.7,67.7,64.2z"
		/>
	<path class="st0" d="M67.5,63.2c0,0.2,0.1,0.4,0.1,0.4c1.7-1.1,3.3-2.2,4.8-3.4C71.2,60.9,69.1,62.2,67.5,63.2z"/>
	<path class="st0" d="M71.5,59.8c-0.8,0.6-2.8,2.2-4.1,2.8c0,0-0.1-0.2-0.1-0.3C68.4,61.7,70.7,60.3,71.5,59.8z"/>
	<path class="st0" d="M70.1,59.5c-0.6,0.6-2.5,1.7-3,2L67,61.2C68.3,60.6,69.3,60.1,70.1,59.5z"/>
	<path class="st0" d="M62.9,54.6l0.2,0.1c0.8-1.3,1.8-3.5,2.3-5.5C64.7,51.1,63.4,53.7,62.9,54.6z"/>
	<path class="st0" d="M63.5,55.1l0.2,0.3c1.1-1.7,2.2-3.9,3.1-6.7C66,50.3,65.1,52.8,63.5,55.1z"/>
	<path class="st0" d="M67.4,49.8c-0.5,1.3-2.2,4.9-3.1,6.1l-0.1-0.2C65.4,54,66.7,52,67.4,49.8z"/>
	<path class="st0" d="M60.1,44.4c0.1,0.2,0.1,0.7,0.2,1c-0.1,1.4,0.2,4.2-0.7,6.2c-0.3,0.2-0.6,0.3-0.6,0.3
		C60.2,48.3,59.7,46.1,60.1,44.4z"/>
	<path class="st0" d="M60.5,46.1c0.1,0.3,0.2,0.5,0.2,0.6c-0.1,1.3,0.2,2.7-0.2,4c-0.2,0.3-0.4,0.6-0.5,0.6
		C60.6,49.4,60.5,47.3,60.5,46.1z"/>
	<path class="st0" d="M60.8,47.2c0.1,0.4,0.4,1.3,0.1,2.4C60.9,48.7,60.8,47.9,60.8,47.2z"/>
	<path class="st0" d="M47.6,80.8c0.2,0.3,0.5,0.8,0.5,0.8c0.5-2.2,0.5-12.7,0.3-17.9C48.3,70.2,48.3,77.5,47.6,80.8z"/>
	<path class="st0" d="M48.5,82l0.4,0.5c0.6-3.8,0.4-8.7,0.4-12.7C48.9,73.5,49.2,79.8,48.5,82z"/>
	<path class="st0" d="M49.2,82.9l0.3,0.4c0.6-2.5,0.4-5.3,0.4-8.9C49.7,77.4,49.7,80.1,49.2,82.9z"/>
	<path class="st0" d="M160.8,71.7c-2.7-2.8-9-5.4-20.8-5.4c-16.5,0-32.8,7.3-48.2,14.4c-9.2,4.2-19.9,8.5-29.6,8.5
		c-8.2,0-12.7-4.5-14.6-7.5c0-0.1-0.1-0.3,0-0.5c1.9,3,6.4,7.5,14.6,7.5c9.8,0,20.4-4.3,29.6-8.5c15.4-7,31.7-14.3,48.2-14.3
		c11.8,0,18.2,2.6,20.8,5.4C161,71.5,160.9,71.8,160.8,71.7z"/>
	<path class="st0" d="M91.4,82.9c-10.8,5.1-19.6,8.4-30.1,8.4c-11.2,0-13.9-9-13.9-9C48.6,85,53,90.7,61,90.7
		c12.3-0.1,20.1-3.9,30.4-8.6c11.9-5.4,30.8-14.2,51.4-14.6c6.6-0.1,13.4,1,17.7,4.7c-5.7-3.9-12.6-4.1-17.6-4.1
		C132,68,114.9,71.6,91.4,82.9z"/>
	<path class="st0" d="M154.2,54.1c0.2,0.1,0.6,0.7,0.6,0.7c1.9,4.2,4.4,11,5.4,15.3C158.4,65.3,156.2,57.8,154.2,54.1z"/>
	<path class="st0" d="M152.9,52.9c0.2,0.1,0.7,0.8,0.7,0.8c1.9,4.7,5.6,14.2,5.6,15.8c0,0-0.1-0.1-0.4-0.2
		C157.8,65,155,57.9,152.9,52.9z"/>
	<path class="st0" d="M152.4,52.9c1.6,3.7,5.5,13.7,5.7,15.9l-0.4-0.1C156.7,63,153.6,56.9,152.4,52.9z"/>
	<path class="st0" d="M152,53.5c1.6,3.7,5.1,12.6,5.3,14.8l-0.4-0.1C155.8,62.9,153.2,57.5,152,53.5z"/>
	<path class="st0" d="M151.6,54.9c1.6,3.7,4.4,10.7,4.6,12.9l-0.4-0.1C154.6,62.3,152.8,58.9,151.6,54.9z"/>
	<path class="st0" d="M151.7,57.5c1.6,3.7,3,7.2,3.3,9.7l-0.4-0.1C154.2,64.7,152.9,61.6,151.7,57.5z"/>
	<path class="st0" d="M151.9,60.6c1.2,2.8,1.8,4.6,1.9,6.1l-0.4-0.1C153.3,65.9,153,64.3,151.9,60.6z"/>
	<path class="st2" d="M153.7,69.6c-0.1,3-0.1,8.7,1.7,12.3c-0.5-3.1,0.5-4.9,2.4-5.4c1.8-0.5,3.1-0.6,3.3-2.1
		C161.3,72.9,157.7,70.5,153.7,69.6z"/>
	<path class="st2" d="M158.5,62L158.5,62c1.7-0.5,3.5-0.1,5.3-0.6c0.9-0.3,5.6-1.9,6-2.8c-1.5,3.4-2.2,8-0.3,11.4
		c1.4,2.4,4.7,5.2,6.8,2.2c-0.1,3.4,0.5,6.6-1.4,9.6c-2.3,3.5-6.4,5.6-10.3,5.6c-5,0-9.4-2.5-9.4-6.8c0-3.6,2.3-4.2,3.1-4.4
		c0.8-0.2,2.3,0.2,3-2.2C162.5,70.2,159.1,65.6,158.5,62z"/>
	<path class="st0" d="M159.2,72.4c0.2,0.1,0.5,0.4,0.5,0.4c0.1,0.6-0.1,1.8,0.1,2.7c-0.2,0-0.4,0.1-0.4,0.1
		C159.2,74.7,159.2,72.8,159.2,72.4z"/>
	<path class="st0" d="M159.9,73c0.1,0.4,0.1,1.9,0.1,2.2C160.4,75,161.1,73.9,159.9,73z"/>
	<path class="st0" d="M158.8,72.2c-0.2-0.1-0.5-0.3-0.5-0.3c0.1,0.8,0.2,2.9,0.4,3.5l0.3-0.1C158.8,74.4,158.8,73,158.8,72.2z"/>
	<path class="st0" d="M158,71.8l-0.4-0.2c0.1,1.1,0.4,3.5,0.5,4.1c0.1,0,0.4-0.1,0.4-0.1C158.1,74.6,158.1,72.3,158,71.8z"/>
	<path class="st0" d="M157.2,71.4l-0.4-0.3c0,0.8,0.4,3.9,0.6,4.6c0.2-0.1,0.3-0.1,0.3-0.1C157.5,74.4,157.3,72.2,157.2,71.4z"/>
	<path class="st0" d="M157.1,75.9c0,0-0.2,0.1-0.3,0.2c-0.5-1.8-0.7-4.1-0.7-5.1c0.2,0.1,0.4,0.2,0.4,0.2
		C156.6,72.4,156.9,74.8,157.1,75.9z"/>
	<path class="st0" d="M156.5,76.2c0,0-0.2,0.2-0.4,0.3c-0.3-1.5-0.6-4.7-0.6-5.7c0.1,0.1,0.3,0.2,0.3,0.2
		C155.9,72.3,156.2,75.1,156.5,76.2z"/>
	<path class="st0" d="M155.9,76.6c-0.1,0.1-0.2,0.3-0.2,0.3c-0.2-1.3-0.6-4.9-0.6-6.3l0.2,0.1C155.3,72,155.5,75.1,155.9,76.6z"/>
	<path class="st0" d="M155.3,77.4c0,0-0.2,0.4-0.2,0.5c-0.3-1.6-0.6-6.3-0.5-7.3l0.1,0.1C154.7,72.5,155.1,76.5,155.3,77.4z"/>
	<path class="st0" d="M154.8,78.3c-0.1,0.2-0.1,0.5-0.1,0.6c-0.4-2.5-0.8-6.9-0.6-8.4C154.2,72,154.5,76.5,154.8,78.3z"/>
	<path class="st0" d="M155.8,79.7c-0.1,1.6,0.8,6.5,8.9,6.5c8,0,11.5-6.8,11.5-10.8c0.2,4.9-3.2,11.6-11.5,11.6
		C156.4,87,155.2,81.4,155.8,79.7z"/>
	<path class="st0" d="M157.2,81.7c0.8,1.5,2.8,3.2,6.3,3.1c4.1-0.1,8.7-1.8,10.7-7.6c-1.1,4.6-5.1,8-10.7,8
		C161.3,85.1,158.1,84.3,157.2,81.7z"/>
	<path class="st0" d="M156.7,77.9l-0.3,0.3c-0.1,1,0.3,2.4,0.5,2.7C156.6,79.4,156.7,78.6,156.7,77.9z"/>
	<path class="st0" d="M157.3,77.5l0.3-0.2c0.3,2,0.8,4.4,1.1,5.2l-0.2-0.1C157.8,80.5,157.4,78.7,157.3,77.5z"/>
	<path class="st0" d="M158.1,77.2l0.3-0.2c0.5,2.5,1.1,5.1,1.5,6.3c-0.2-0.1-0.4-0.3-0.4-0.3C158.6,80.6,158.2,78.4,158.1,77.2z"/>
	<path class="st0" d="M158.7,77l0.4-0.1c0.5,2.3,1.2,5.4,1.8,7c-0.2-0.1-0.5-0.3-0.5-0.3C159.7,81.4,159,78.7,158.7,77z"/>
	<path class="st0" d="M159.5,76.8l0.3-0.1c0.4,2.2,1.5,6,1.9,7.4c-0.2-0.1-0.4-0.2-0.4-0.2C160.6,81.5,159.7,78.3,159.5,76.8z"/>
	<path class="st0" d="M160.3,76.7l0.4-0.2c0.4,1.9,1.4,6,2,7.8c-0.2-0.1-0.5-0.1-0.5-0.1C161.5,82.1,160.6,78.4,160.3,76.7z"/>
	<path class="st0" d="M161,76.4c0,0,0.2-0.2,0.3-0.3c0.4,2.7,1.5,7.1,2,8.4c-0.2,0-0.4-0.1-0.4-0.1C162.4,82.5,161.4,78.9,161,76.4z
		"/>
	<path class="st0" d="M162,77.1c0.2,0.9,1.4,6.5,1.8,7.3h0.3C163.6,83,162.3,78.4,162,77.1z"/>
	<path class="st0" d="M162.7,77.5c0.3,1.5,1.1,5.3,1.7,6.8c0.2,0,0.3-0.1,0.3-0.1C163.9,82,162.9,78.6,162.7,77.5z"/>
	<path class="st0" d="M163.4,77.7c0.2,1.1,1.4,5.7,1.7,6.4h0.3C164.8,82.5,163.7,78.6,163.4,77.7z"/>
	<path class="st0" d="M164.2,77.8c0.3,1.5,1.1,5.3,1.5,6.2l0.4-0.1C165.4,81.8,164.5,78.9,164.2,77.8z"/>
	<path class="st0" d="M165.2,78.4c0.3,1.2,1.2,4.8,1.4,5.4l0.4-0.1C166.3,81.2,165.4,79.2,165.2,78.4z"/>
	<path class="st0" d="M166.3,79.2c0.3,1.1,1,3.6,1.2,4.2c0.3-0.1,0.4-0.2,0.4-0.2C167.3,81.7,166.8,80.4,166.3,79.2z"/>
	<path class="st0" d="M63.9,78.7v7l-2.3,0.1V72.7l2.3-0.1v4.2l3.7-0.3v-4.2l2.2-0.1v13.2l-2.2,0.1v-7L63.9,78.7z"/>
	<path class="st0" d="M76,70.5c1.7-0.6,3.3-0.3,3.5,2.4l1.1,9.3l-2.1,0.7l-0.7-6.3l-3.4,1.1l-0.2,6.6L72.1,85l0.5-13.3L76,70.5z
		 M77.5,74.7c-0.2-1.8-0.5-2.6-1.9-2.2l-1,0.3l-0.1,2.8L77.5,74.7z"/>
	<path class="st0" d="M86.8,66.5l7.3-3.3v13.2L92,77.3V66l-3.2,1.5v11.3l-2.1,0.9L86.8,66.5L86.8,66.5z"/>
	<path class="st0" d="M99.8,60.3c2.6-1.1,4,1,4,5.1s-1.4,7.5-4,8.7C97.3,75.2,96,73,96,68.9v-0.1C95.9,64.8,97.4,61.3,99.8,60.3z
		 M97.9,68c0,2.7,0.6,4.7,1.9,4.1c1.3-0.6,1.9-3,1.9-5.8c0-2.8-0.5-4.7-1.9-4C98.6,62.9,97.9,65.3,97.9,68z"/>
	<path class="st0" d="M105.7,58l6.4-2.5v2l-4.3,1.6v2.5l3.4-1.3v2l-3.4,1.3v4.7l4.3-1.6v2l-6.4,2.4V58L105.7,58z"/>
	<path class="st0" d="M120.3,56.2c0,1.5-0.8,2.8-1.4,3.2c0.9,0.2,2,0.9,2,2.9c0,2.6-2.4,5.7-7.4,6v-2.2c2.7,0.3,5.2-1.5,5.2-3.2
		c0-1.6-1.4-2.2-3.5-1.2v-1.9c2.6-0.8,2.9-2.1,2.8-3c0-0.9-2.1-1.4-4.4,0.1v-2C116.4,53.4,120.2,53.3,120.3,56.2z"/>
	<path class="st0" d="M123.9,52.2l3-0.5c2.9-0.5,3.5,1.1,3.6,2.1l1.1,8.4l1.1-0.2v2.8l-2.2,0.4v-0.9l-6.3,1.1v0.9l-2.2,0.4V64
		c0.6-0.2,1.5-0.6,1.6-2.5L123.9,52.2z M126,53.6l-0.2,7.4c-0.1,1.5-0.3,2-0.5,2.2l4-0.7l-0.8-6.6C128.4,53.3,127.5,53.2,126,53.6z"
		/>
	<path class="st0" d="M138,54.4c1.6-1.5,4.8-1,4.6,4.1c0,1.3-0.5,5.3-4.4,5.1l-2.5,0.1V52.4l-2,0.1v-1.9l4.3-0.1L138,54.4L138,54.4z
		 M137.9,61.8c1.3,0.1,2.2-0.9,2.2-3.9c0-1.6-0.5-2.3-1-2.3c-0.8,0-1.2,0.8-1.2,2.1V61.8L137.9,61.8z"/>
</g>
</svg>
