<svg width="469" height="269" viewBox="0 0 469 269" fill="none" xmlns="http://www.w3.org/2000/svg">
<g clip-path="url(#clip0_1_5)">
<path d="M192.494 24.5224H188.568C148.133 24.5224 98.668 26.1407 85.8438 26.1407V26.7631C92.6484 26.7631 144.207 28.3813 188.176 28.3813C189.615 28.3813 191.186 28.3813 192.756 28.3813C192.494 27.1365 192.494 25.8917 192.494 24.5224Z" fill="white"/>
<path d="M283.965 24.6469C283.965 25.7672 283.834 26.7631 283.834 27.8834C337.748 27.3855 386.559 26.7631 390.746 26.7631V26.1407C380.932 26.1407 325.971 24.8959 283.965 24.6469Z" fill="white"/>
<path d="M113.717 37.0949H118.689C126.41 36.5969 127.326 44.3147 127.326 46.8043C127.719 56.5136 121.437 57.5095 118.297 54.7709V62.4887H113.717V37.0949V37.0949ZM118.297 48.4225C118.428 53.6506 122.746 53.5261 122.746 47.9246C122.877 42.323 120.914 40.2068 118.297 40.5803V48.4225Z" fill="white"/>
<path d="M136.617 44.3147C140.543 44.3147 142.637 48.1735 142.637 53.5261C142.637 59.0032 140.543 62.8621 136.617 62.8621C132.822 62.8621 130.859 59.0032 130.859 53.5261C130.729 48.049 132.953 44.1902 136.617 44.3147ZM133.869 53.5261C133.869 57.136 134.785 60.248 136.748 60.248C138.711 60.248 139.627 57.2605 139.627 53.5261C139.627 49.7918 138.973 46.9287 136.748 46.9287C134.785 46.9287 133.869 49.9162 133.869 53.5261Z" fill="white"/>
<path d="M155.984 60.1236V62.9866C149.311 62.8621 145.777 58.8788 145.777 53.6506C145.777 48.298 148.918 44.0657 155.984 44.3147V47.1777C151.273 46.9287 149.18 50.0407 149.18 53.6506C149.049 57.2605 151.273 60.1236 155.984 60.1236Z" fill="white"/>
<path d="M169.07 60.1236V62.9866C162.396 62.8621 158.863 58.8788 158.863 53.6506C158.863 48.298 162.004 44.0657 169.07 44.3147V47.1777C164.359 46.9287 162.266 50.0407 162.266 53.6506C162.135 57.2605 164.49 60.1236 169.07 60.1236Z" fill="white"/>
<path d="M172.734 62.4887V44.6881H175.875V62.4887H172.734Z" fill="white"/>
<path d="M191.055 62.4887H187.914L187.391 50.4142L182.156 55.1444V62.4887H179.016V44.6881H182.156V51.2855L190.27 44.0657L191.055 62.4887ZM189.746 40.7048V41.7006C189.746 42.8209 188.307 43.8168 186.605 43.8168H183.203C181.109 43.8168 180.063 42.9454 180.063 41.7006V40.7048H180.979C180.979 41.4516 181.764 42.074 183.596 42.074H186.213C187.783 42.074 188.83 41.4516 188.83 40.7048H189.746Z" fill="white"/>
<path d="M204.533 60.1236V62.9866C197.859 62.8621 194.326 58.8788 194.326 53.6506C194.326 48.298 197.467 44.0657 204.533 44.3147V47.1777C199.822 46.9287 197.729 50.0407 197.729 53.6506C197.598 57.2605 199.953 60.1236 204.533 60.1236Z" fill="white"/>
<path d="M211.076 62.4887H207.936V44.6881H211.076V50.6631C212.908 51.161 215.525 51.2855 215.395 49.1694V44.6881H218.535L218.666 49.2938C218.666 52.0324 217.488 52.9037 216.441 53.2772L219.844 62.4887H216.572L213.301 53.5261C212.777 53.5261 211.6 53.5261 211.076 53.5261V62.4887V62.4887Z" fill="white"/>
<path d="M228.742 44.6881C231.229 44.6881 233.584 45.6839 233.846 49.4183L235.416 62.4887H232.275L231.359 53.6506H226.518L226.125 62.4887H222.984L223.639 44.6881H228.742V44.6881ZM231.098 51.0366C230.836 48.4225 230.312 47.3022 228.219 47.3022H226.779L226.648 51.0366H231.098Z" fill="white"/>
<path d="M249.68 62.4887H246.539V53.5261H244.314L240.912 62.4887H237.771L241.174 53.2772C239.211 52.4058 238.164 51.659 238.164 49.0449C238.164 46.3063 240.52 44.6881 243.137 44.6881H249.68V62.4887ZM243.398 47.3022C242.221 47.3022 241.305 48.0491 241.305 49.0449C241.305 50.0407 242.221 50.7876 243.398 50.7876H246.539V47.3022H243.398Z" fill="white"/>
<path d="M282.133 62.4887H277.684L276.898 45.186L269.309 52.0324V62.4887H264.859V37.0949H269.309V46.5553L280.824 36.2235L282.133 62.4887Z" fill="white"/>
<path d="M287.76 44.0657L293.648 52.1569L299.537 44.0657L300.715 62.4887H297.574L296.92 52.6548L293.648 57.2605L290.377 52.6548L289.723 62.4887H286.713L287.76 44.0657Z" fill="white"/>
<path d="M304.379 44.6881H315.371V62.4887H312.231V47.3022H307.389V62.4887H304.248V44.6881H304.379Z" fill="white"/>
<path d="M319.428 44.6881H328.85V47.3022H322.568V50.7876H327.672V53.4017H322.568V59.8746H328.85V62.4887H319.428V44.6881Z" fill="white"/>
<path d="M331.859 44.6881H335.393C340.758 44.3147 341.412 49.7918 341.412 51.5345C341.674 58.3809 337.355 59.0033 335.131 57.1361V62.4887H331.99V44.6881H331.859ZM335 52.6548C335.131 56.3892 338.141 56.2647 338.141 52.2814C338.271 48.298 336.832 46.9287 335 47.0532V52.6548V52.6548Z" fill="white"/>
<path d="M344.945 62.4887V44.6881H348.086V62.4887H344.945Z" fill="white"/>
<path d="M362.088 62.4887H358.947V53.5261H356.723L353.32 62.4887H350.18L353.582 53.2772C351.619 52.4058 350.572 51.659 350.572 49.0449C350.572 46.3063 352.928 44.6881 355.545 44.6881H362.088V62.4887V62.4887ZM355.937 47.3022C354.76 47.3022 353.844 48.0491 353.844 49.0449C353.844 50.0407 354.76 50.7876 355.937 50.7876H359.078V47.3022H355.937Z" fill="white"/>
<path d="M212.17 7.59324C212.17 6.59741 211.908 5.97501 211.385 5.72605C211.123 5.60157 210.338 5.60157 209.029 5.60157C210.992 4.2323 212.17 3.36094 212.562 2.98751C213.217 2.48959 214.395 1.49375 216.096 0V25.5183C216.096 26.6386 216.619 27.3855 217.666 27.6344C218.189 27.7589 218.451 27.8834 218.451 28.0079C218.451 28.1323 218.059 28.1323 217.404 28.1323H210.73C210.076 28.1323 209.684 28.1323 209.684 28.1323C209.684 28.1323 209.814 28.0079 209.945 27.8834C210.076 27.7589 210.338 27.6344 210.469 27.6344C211.516 27.3855 212.039 26.6386 212.039 25.5183V7.59324H212.17Z" fill="white"/>
<path d="M224.994 18.6719C223.686 19.7922 223.031 21.037 223.031 22.4063C223.031 23.4021 223.293 24.149 223.947 24.7714C224.471 25.3938 225.256 25.7672 226.303 25.7672C227.873 25.7672 229.051 25.0204 229.836 23.4021C230.752 21.4105 231.275 17.925 231.275 13.0703C231.275 9.7094 230.883 7.21981 230.229 5.60158C229.574 4.10783 228.527 3.36095 226.957 3.36095C225.91 3.36095 225.125 3.85887 224.34 4.73022C223.555 5.60158 223.162 6.72189 223.162 8.09117C223.162 10.3318 223.555 11.95 224.209 12.9459C224.732 13.6927 225.648 14.0662 226.957 14.0662C228.135 14.0662 229.051 13.5683 229.836 12.5724C230.49 12.8214 230.752 13.3193 230.752 14.0662C230.752 14.8131 230.359 15.4355 229.574 15.9334C228.789 16.4313 227.742 16.6802 226.434 16.6802C224.471 16.6802 222.9 16.0578 221.592 14.8131C220.152 13.4438 219.367 11.4521 219.367 9.087C219.367 6.47293 220.021 4.35678 221.199 2.86303C222.508 1.2448 224.471 0.373444 226.957 0.373444C232.453 0.373444 235.201 4.73022 235.201 13.5683C235.201 18.6719 234.285 22.5308 232.453 25.1448C230.883 27.3855 228.789 28.5058 226.303 28.5058C224.471 28.5058 222.9 28.0079 221.723 26.8876C220.414 25.7672 219.76 24.149 219.76 22.1573C219.76 21.037 220.021 20.1657 220.676 19.4188C221.33 18.5474 222.377 18.0495 223.555 18.0495C224.209 18.174 224.732 18.2985 224.994 18.6719Z" fill="white"/>
<path d="M239.389 7.59324C239.389 6.59741 239.127 5.97501 238.604 5.72605C238.342 5.60157 237.557 5.60157 236.248 5.60157C238.211 4.2323 239.389 3.36094 239.781 2.98751C240.436 2.48959 241.613 1.49375 243.314 0V25.5183C243.314 26.6386 243.838 27.3855 244.885 27.6344C245.408 27.7589 245.67 27.8834 245.67 28.0079C245.67 28.1323 245.277 28.1323 244.623 28.1323H237.949C237.295 28.1323 236.902 28.1323 236.902 28.1323C236.902 28.1323 237.033 28.0079 237.164 27.8834C237.295 27.7589 237.557 27.6344 237.687 27.6344C238.734 27.3855 239.258 26.6386 239.258 25.5183V7.59324H239.389Z" fill="white"/>
<path d="M257.055 12.9459C258.756 13.4438 260.064 14.1907 260.85 15.1865C261.766 16.3068 262.289 17.8006 262.289 19.7922C262.289 22.2818 261.504 24.2735 260.064 26.0162C258.625 27.6344 256.531 28.5058 254.045 28.5058C251.689 28.5058 249.727 27.8834 248.418 26.7631C247.109 25.6428 246.324 24.0245 246.324 22.0329C246.324 20.7881 246.717 19.7922 247.633 18.9209C248.418 18.0495 249.465 17.5516 250.773 17.5516C251.166 17.5516 251.559 17.5516 252.082 17.6761C250.773 18.9209 250.119 20.1657 250.119 21.6594C250.119 22.7797 250.512 23.6511 251.166 24.398C251.951 25.1448 252.867 25.6428 254.176 25.6428C256.924 25.6428 258.363 23.7756 258.363 20.0412C258.363 18.423 257.971 17.0537 257.186 16.1823C256.4 15.1865 255.223 14.6886 253.652 14.6886C252.867 14.6886 251.951 14.9375 250.904 15.4355V10.9542C251.951 11.4521 252.867 11.7011 253.652 11.7011C255.092 11.7011 256.27 11.2032 257.055 10.2073C257.84 9.21148 258.232 7.96669 258.232 6.34846C258.232 5.4771 257.971 4.73022 257.578 4.23231C257.055 3.36095 256.27 2.98751 255.354 2.98751C254.438 2.98751 253.783 3.23647 253.129 3.73439C252.475 4.23231 252.213 4.97918 252.213 5.85054C252.213 6.84637 252.736 7.71773 253.652 8.58908C253.26 8.96252 252.867 9.21148 252.344 9.21148C251.559 9.21148 250.773 8.83804 249.988 7.96669C249.203 7.21981 248.811 6.34846 248.811 5.35262C248.811 3.85887 249.334 2.61407 250.512 1.74272C251.689 0.871361 253.129 0.373444 255.092 0.373444C257.186 0.373444 258.887 0.871361 260.195 1.8672C261.504 2.98751 262.158 4.48126 262.158 6.47293C261.766 9.33596 260.195 11.4521 257.055 12.9459Z" fill="white"/>
<path d="M390.615 75.31C383.941 75.31 261.457 76.9283 188.045 76.9283C143.945 76.9283 92.5176 75.31 85.7129 75.31V74.6876C98.5371 74.6876 148.133 73.0694 188.438 73.0694H271.533C314.324 73.0694 379.885 74.6876 390.615 74.6876V75.31Z" fill="white"/>
<path d="M50.7734 158.96H6.01953V157.466C7.85156 156.969 9.16016 156.097 9.16016 154.23V101.326C9.16016 99.4591 7.85156 98.5877 6.01953 98.0898V96.7205H64.3828C66.3457 96.7205 67.2617 95.4757 67.7852 93.733H69.3555V109.791H67.7852C67.2617 108.048 66.3457 106.803 64.3828 106.803H23.293V121.243H49.334C65.5605 121.243 75.2441 128.338 75.2441 139.79C75.375 154.603 63.0742 158.96 50.7734 158.96ZM47.6328 148.753C54.0449 148.753 60.8496 147.757 60.8496 140.164C60.8496 132.695 53.9141 131.575 47.6328 131.575H23.293V148.628H47.6328V148.753Z" fill="#401B17"/>
<path d="M100.5 152.238V154.106C100.5 155.973 101.678 156.969 103.641 157.342V158.836H83.2266V157.342C85.0586 156.844 86.3672 155.973 86.3672 154.106V101.326C86.3672 99.4591 85.0586 98.5877 83.2266 98.0898V96.7205H103.641V98.0898C101.809 98.5877 100.5 99.4591 100.5 101.326V136.678L138.318 102.82V101.451C138.318 99.5835 137.01 98.7122 135.178 98.2143V96.845H155.723V98.2143C153.891 98.7122 152.582 99.5835 152.582 101.451V154.23C152.582 156.097 153.891 157.093 155.723 157.466V158.96H135.178V157.466C137.01 156.969 138.318 156.097 138.318 154.23V118.38L100.5 152.238Z" fill="#401B17"/>
<path d="M165.275 96.7205H232.799V98.0898C230.967 98.5877 229.658 99.4591 229.658 101.326V154.106C229.658 155.973 230.967 156.969 232.799 157.342V158.836H212.254V157.342C214.086 156.844 215.395 155.973 215.395 154.106V106.803H182.418V130.828C182.418 139.541 181.24 147.757 178.23 151.616C174.174 156.72 169.725 158.96 163.182 158.96H159.125V145.392H160.957C161.219 146.761 161.611 147.757 162.789 147.757C165.145 147.757 168.416 145.392 168.416 137.301V101.326C168.416 99.4591 167.107 98.5877 165.275 98.0898V96.7205V96.7205Z" fill="#401B17"/>
<path d="M258.055 148.753H300.191C302.285 148.753 303.332 147.508 303.725 145.765H305.164V161.948H303.594C303.07 160.205 302.154 158.96 300.061 158.96H240.65V157.466C242.482 156.969 243.791 156.097 243.791 154.23V101.326C243.791 99.3346 242.482 98.5877 240.65 98.0898V96.7205H299.014C300.977 96.7205 301.893 95.4757 302.416 93.733H303.986V109.791H302.416C301.893 108.048 300.977 106.803 299.014 106.803H257.924V121.616H284.488C286.582 121.616 287.498 120.372 287.891 118.753H289.461V134.438H287.891C287.367 132.695 286.451 131.45 284.488 131.45H257.924V148.753H258.055Z" fill="#401B17"/>
<path d="M352.535 154.106C352.535 156.097 353.844 156.969 355.676 157.342V158.836H335.262V157.342C337.094 156.844 338.402 155.973 338.402 154.106V106.803H318.119C316.025 106.803 315.109 108.048 314.717 109.791H313.146V93.733H314.717C315.24 95.4757 316.025 96.7205 318.119 96.7205H372.949C375.043 96.7205 375.959 95.4757 376.352 93.733H377.922V109.791H376.352C375.828 108.048 375.043 106.803 372.949 106.803H352.666V154.106H352.535Z" fill="#401B17"/>
<path d="M422.938 98.0898C421.106 98.5877 419.797 99.4591 419.797 101.326V121.492H443.352C449.895 121.492 456.568 121.741 462.195 125.475C466.906 128.712 469.131 134.811 469.131 140.288C469.131 145.765 466.906 151.491 462.195 154.852C456.83 158.711 449.895 158.96 443.352 158.96H402.523V157.466C404.356 156.969 405.664 156.097 405.664 154.23V106.928H391.27C389.176 106.928 388.26 108.173 387.867 109.915H386.035V93.733H387.606C388.129 95.4757 389.045 96.7205 391.008 96.7205H422.807V98.0898H422.938ZM441.65 131.699H419.797V148.753H442.828C448.848 148.753 454.475 147.259 454.475 140.288C454.475 133.193 447.539 131.699 441.65 131.699Z" fill="#401B17"/>
<path d="M45.4082 152.985H0.654297V151.491C2.48633 150.994 3.79492 150.122 3.79492 148.255V95.3512C3.79492 93.484 2.48633 92.6127 0.654297 92.1148V90.7455H59.0176C60.9805 90.7455 61.8965 89.5007 62.4199 87.758H63.9902V103.816H62.4199C61.8965 102.073 60.9805 100.828 59.0176 100.828H17.9277V115.392H43.9687C60.1953 115.392 69.8789 122.488 69.8789 133.94C70.0098 148.628 57.709 152.985 45.4082 152.985ZM42.2676 142.778C48.6797 142.778 55.4844 141.782 55.4844 134.189C55.4844 126.72 48.5488 125.6 42.2676 125.6H17.9277V142.653H42.2676V142.778Z" fill="white" stroke="#401B17" stroke-miterlimit="10"/>
<path d="M95.1348 146.263V148.13C95.1348 149.998 96.3125 150.994 98.2754 151.367V152.861H77.8613V151.367C79.6934 150.869 81.002 149.998 81.002 148.13V95.3512C81.002 93.484 79.6934 92.6127 77.8613 92.1148V90.7455H98.2754V92.1148C96.4434 92.6127 95.1348 93.484 95.1348 95.3512V130.703L132.953 96.845V95.4757C132.953 93.6085 131.645 92.7371 129.812 92.2392V90.87H150.357V92.1148C148.525 92.6127 147.217 93.484 147.217 95.3512V148.13C147.217 149.998 148.525 150.994 150.357 151.367V152.861H129.812V151.367C131.645 150.869 132.953 149.998 132.953 148.13V112.405L95.1348 146.263Z" fill="white" stroke="#401B17" stroke-miterlimit="10"/>
<path d="M159.91 90.7455H227.434V92.1148C225.602 92.6127 224.293 93.484 224.293 95.3512V148.131C224.293 149.998 225.602 150.994 227.434 151.367V152.861H206.889V151.367C208.721 150.869 210.029 149.998 210.029 148.131V100.828H177.053V124.853C177.053 133.566 175.875 141.782 172.865 145.641C168.809 150.745 164.359 152.985 157.816 152.985H153.76V139.417H155.592C155.854 140.786 156.246 141.782 157.424 141.782C159.779 141.782 163.051 139.417 163.051 131.326V95.3512C163.051 93.484 161.742 92.6127 159.91 92.1148V90.7455V90.7455Z" fill="white" stroke="#401B17" stroke-miterlimit="10"/>
<path d="M252.689 142.778H294.826C296.92 142.778 297.967 141.533 298.359 139.79H299.799V155.973H298.359C297.836 154.23 296.92 152.985 294.826 152.985H235.416V151.491C237.248 150.994 238.557 150.122 238.557 148.255V95.3512C238.557 93.3596 237.248 92.6127 235.416 92.1148V90.7455H293.779C295.742 90.7455 296.658 89.5007 297.182 87.758H298.752V103.816H297.051C296.527 102.073 295.611 100.828 293.648 100.828H252.559V115.641H279.123C281.217 115.641 282.133 114.397 282.525 112.778H284.096V128.463H282.656C282.133 126.72 281.217 125.475 279.254 125.475H252.689V142.778Z" fill="white" stroke="#401B17" stroke-miterlimit="10"/>
<path d="M347.17 148.13C347.17 150.122 348.479 150.994 350.311 151.367V152.861H329.897V151.367C331.729 150.869 333.037 149.998 333.037 148.13V100.828H312.754C310.66 100.828 309.744 102.073 309.352 103.816H307.781V87.758H309.352C309.875 89.5007 310.66 90.7455 312.754 90.7455H367.584C369.678 90.7455 370.594 89.5007 370.986 87.758H372.557V103.816H370.986C370.463 102.073 369.678 100.828 367.584 100.828H347.301V148.13H347.17Z" fill="white" stroke="#401B17" stroke-miterlimit="10"/>
<path d="M417.572 92.1148C415.74 92.6127 414.432 93.484 414.432 95.3512V115.517H437.986C444.529 115.517 451.334 115.766 456.83 119.5C461.541 122.737 463.766 128.836 463.766 134.313C463.766 139.79 461.541 145.516 456.83 148.877C451.465 152.736 444.529 152.985 437.986 152.985H397.158V151.491C398.99 150.994 400.299 150.122 400.299 148.255V100.953H385.904C383.811 100.953 382.895 102.198 382.502 103.94H380.932V87.758H382.502C383.025 89.5007 383.941 90.7455 385.904 90.7455H417.703V92.1148H417.572ZM436.285 125.724H414.432V142.778H437.463C443.482 142.778 449.109 141.284 449.109 134.313C449.109 127.218 442.174 125.724 436.285 125.724Z" fill="white" stroke="#401B17" stroke-miterlimit="10"/>
<path d="M7.19727 149.624C7.32813 149.126 7.32812 148.753 7.32812 148.255V95.3512C7.32812 94.9778 7.32813 94.4799 7.19727 93.982H59.0176C59.4102 93.982 59.9336 93.982 60.457 93.8575V97.5919C59.9336 97.4674 59.4102 97.4674 59.0176 97.4674H14.3945V118.753H44.0996C58.1016 118.753 66.4766 124.479 66.4766 133.94C66.4766 146.761 55.0918 149.5 45.4082 149.5H7.19727V149.624ZM14.3945 146.139H42.2676C53.3906 146.139 59.0176 142.155 59.0176 134.189C59.0176 126.222 53.3906 122.239 42.2676 122.239H14.3945V146.139Z" fill="#DE241A"/>
<path d="M136.355 149.624C136.486 149.126 136.486 148.753 136.486 148.255V104.563L91.6016 144.894V148.255C91.6016 148.753 91.6016 149.251 91.7324 149.624H84.4043C84.5352 149.126 84.5352 148.753 84.5352 148.255V95.3512C84.5352 94.9778 84.5352 94.4799 84.4043 93.9819H91.7324C91.6016 94.6043 91.6016 94.9778 91.6016 95.3512V138.546L136.617 98.3387V95.4757C136.617 95.1023 136.617 94.6043 136.486 94.1064H143.814C143.684 94.6043 143.684 95.1023 143.684 95.4757V148.13C143.684 148.628 143.684 149.126 143.814 149.5H136.355V149.624Z" fill="#DE241A"/>
<path d="M213.563 149.624C213.693 149.126 213.693 148.753 213.693 148.255V97.5919H173.65V124.977C173.65 133.94 172.342 140.911 170.117 143.649C166.715 148.006 163.313 149.624 157.947 149.624H157.424V145.267C161.611 145.267 166.584 141.658 166.584 131.326V95.3512C166.584 94.9778 166.584 94.4799 166.453 93.9819H221.021C220.891 94.4799 220.891 94.9778 220.891 95.3512V148.13C220.891 148.628 220.891 149.126 221.021 149.5H213.563V149.624Z" fill="#DE241A"/>
<path d="M296.266 149.749C295.742 149.624 295.35 149.624 294.826 149.624H241.959C242.09 149.126 242.09 148.753 242.09 148.255V95.3512C242.09 94.9778 242.09 94.4799 241.959 93.982H293.779C294.172 93.982 294.695 93.982 295.219 93.8575V97.5919C294.695 97.4674 294.172 97.4674 293.779 97.4674H249.156V119.002H279.254C279.646 119.002 280.17 119.002 280.693 118.878V122.239C280.17 122.114 279.646 122.114 279.254 122.114H249.156V146.014H294.826C295.35 146.014 295.873 146.014 296.266 145.89V149.749Z" fill="#DE241A"/>
<path d="M336.439 149.624C336.57 149.126 336.57 148.753 336.57 148.255V97.5919H312.754C312.361 97.5919 311.838 97.5919 311.314 97.7163V93.9819C311.838 94.1064 312.361 94.1064 312.754 94.1064H367.584C367.977 94.1064 368.5 94.1064 369.023 93.9819V97.7163C368.5 97.5919 367.977 97.5919 367.584 97.5919H343.768V148.13C343.768 148.504 343.768 149.002 343.898 149.5H336.439V149.624Z" fill="#DE241A"/>
<path d="M403.57 149.624C403.701 149.126 403.701 148.753 403.701 148.255V97.5919H385.773C385.381 97.5919 384.857 97.5919 384.334 97.7163V93.9819C384.857 94.1064 385.381 94.1064 385.773 94.1064H410.898C410.768 94.6043 410.768 95.1023 410.768 95.4757V119.002H437.855C444.006 119.002 450.025 119.251 454.605 122.363C457.877 124.728 460.102 129.459 460.102 134.438C460.102 139.417 458.008 143.898 454.605 146.388C450.287 149.5 444.006 149.749 437.986 149.749H403.57V149.624ZM410.768 146.139H437.332C450.549 146.139 452.643 138.67 452.643 134.313C452.643 130.703 451.072 122.363 436.285 122.363H410.898V146.139H410.768Z" fill="#DE241A"/>
<path d="M175.09 232.154C171.818 232.154 169.332 232.279 166.715 235.142C166.061 235.764 166.453 236.76 167.369 236.511C168.285 236.386 169.332 238.751 166.977 238.751C164.621 238.751 164.621 234.893 167.5 232.901C170.379 230.909 176.922 229.665 184.512 234.644C192.102 239.623 194.98 241.241 198.383 241.615C198.383 242.237 198.383 242.237 198.383 242.237C193.934 241.49 189.092 238.751 184.381 235.515C179.408 232.652 176.398 232.154 175.09 232.154Z" fill="black"/>
<path d="M194.588 213.98C181.24 219.457 157.293 228.793 132.953 228.793C108.613 228.793 101.678 216.719 100.5 214.354C99.3223 211.988 97.6211 209.997 98.7988 206.262C99.8457 202.528 100.369 181.864 100.369 177.881C100.369 173.898 99.9766 166.18 101.154 163.192C101.678 195.931 145.777 185.101 182.68 170.786C208.59 160.703 251.119 139.79 299.275 139.79C313.539 139.79 331.729 144.645 338.271 155.724C344.814 166.802 351.357 186.346 352.012 188.96C352.666 191.698 352.666 193.317 351.488 194.81C351.357 190.329 338.402 183.109 316.549 183.109C272.318 183.109 240.127 195.433 194.588 213.98Z" fill="#ECDECB" stroke="black" stroke-width="0.6075" stroke-linecap="round" stroke-linejoin="round"/>
<path d="M145.123 228.171C142.506 234.021 139.104 252.693 149.18 261.656C159.256 270.618 177.838 271.863 186.213 260.909C168.285 265.515 143.814 252.444 147.871 228.046C147.086 228.046 145.123 228.171 145.123 228.171Z" fill="#D8C5AC" stroke="black" stroke-width="0.6075" stroke-linecap="round" stroke-linejoin="round"/>
<path d="M174.436 249.208C175.09 248.585 175.482 248.212 177.445 247.839C179.408 247.465 184.512 246.22 186.344 241.988C188.045 237.756 190.008 227.424 197.99 226.055C188.83 228.046 185.035 230.536 182.811 236.013C179.67 243.357 174.828 247.216 174.436 249.208Z" fill="#A59886" stroke="black" stroke-width="0.6075" stroke-linecap="round" stroke-linejoin="round"/>
<path d="M174.436 249.332C174.174 249.955 175.09 250.204 177.053 249.706C179.016 249.208 187.521 247.714 188.568 254.436C188.568 250.204 187.129 247.59 182.941 247.341C178.623 247.216 174.828 248.336 174.436 249.332Z" stroke="black" stroke-width="0.6075" stroke-linecap="round" stroke-linejoin="round"/>
<path d="M185.166 244.104C192.625 244.975 195.766 247.839 196.289 253.067C196.813 258.295 191.186 270.369 165.406 268.129C175.875 269 186.736 265.888 188.699 254.187C189.615 249.208 185.166 246.096 179.67 247.341C183.465 245.847 184.773 244.602 185.166 244.104Z" fill="#ECDECB" stroke="black" stroke-width="0.6075" stroke-linecap="round" stroke-linejoin="round"/>
<path d="M189.877 232.652C194.588 230.536 204.01 229.54 205.449 234.768C206.889 240.121 202.57 242.735 197.598 242.112C205.318 244.104 210.029 241.241 210.029 234.893C210.029 228.544 204.271 225.806 200.215 225.806C196.289 225.806 192.102 228.046 189.877 232.652Z" fill="#A59886" stroke="black" stroke-width="0.6075" stroke-linecap="round" stroke-linejoin="round"/>
<path d="M176.66 247.465C179.277 246.843 182.287 245.722 184.119 243.855C185.951 241.863 186.736 239.125 187.26 237.133C185.689 240.245 185.166 242.112 183.334 243.731C181.371 245.349 178.885 246.22 178.23 246.469C177.576 246.594 177.838 245.971 178.23 245.349C177.184 246.345 176.922 246.967 176.66 247.465Z" fill="black"/>
<path d="M175.875 248.834C175.09 249.083 175.09 249.457 176.137 249.208C177.184 248.959 180.717 248.336 182.418 248.585C183.988 248.834 186.213 249.083 187.129 250.453C185.297 248.461 183.072 248.087 181.109 248.087C179.408 248.212 177.314 248.336 175.875 248.834Z" fill="black"/>
<path d="M180.063 266.884C181.502 266.261 184.119 264.519 185.297 263.523C189.877 260.784 190.793 260.535 192.494 259.042C190.008 261.407 187.391 263.398 185.951 264.021C184.643 264.643 184.25 265.639 185.951 264.768C187.652 263.896 195.111 260.411 195.504 252.818C195.766 256.428 194.326 259.913 190.924 262.403C187.391 265.017 183.988 266.137 180.063 266.884Z" fill="black"/>
<path d="M186.998 261.158C187.391 260.66 187.914 259.664 187.914 259.664C190.4 258.295 193.148 256.552 194.457 255.183C192.494 257.299 188.961 260.162 186.998 261.158Z" fill="black"/>
<path d="M189.092 256.552C188.961 257.05 188.699 257.797 188.699 257.797C190.793 256.801 192.625 255.432 193.934 253.316C192.494 255.183 190.924 256.179 189.092 256.552Z" fill="black"/>
<path d="M189.746 253.565C189.615 253.938 189.484 254.685 189.484 254.685C191.447 253.938 192.494 253.316 193.541 251.199C192.625 252.693 191.447 253.191 189.746 253.565Z" fill="black"/>
<path d="M185.951 246.967L186.605 247.341C187.522 246.594 188.568 245.722 188.568 245.722C187.914 246.096 186.344 246.843 185.951 246.967Z" fill="black"/>
<path d="M187.652 247.714C187.914 247.963 188.307 248.336 188.307 248.336C189.223 247.59 190.531 246.469 190.531 246.469L190.27 246.22C188.699 246.967 187.652 247.714 187.652 247.714Z" fill="black"/>
<path d="M188.83 248.959C188.961 249.208 189.223 249.706 189.223 249.706C190.531 248.71 191.84 247.465 191.84 247.465L191.447 247.216L188.83 248.959Z" fill="black"/>
<path d="M189.615 250.204C189.615 250.204 189.877 250.702 189.877 250.95C190.924 250.204 192.494 248.71 192.494 248.71L192.232 248.336C190.924 249.083 189.615 250.204 189.615 250.204Z" fill="black"/>
<path d="M189.877 251.573L189.746 252.195C190.793 251.822 192.494 250.826 192.756 250.328C191.578 251.075 190.531 251.324 189.877 251.573Z" fill="black"/>
<path d="M184.25 261.905L182.418 262.278C181.24 264.892 174.305 267.88 166.061 267.631C172.473 268.004 179.147 267.008 184.25 261.905Z" fill="black"/>
<path d="M176.529 262.527H177.445C176.137 263.523 172.734 266.51 171.426 267.008L170.641 267.133C172.996 265.639 175.744 263.523 176.529 262.527Z" fill="black"/>
<path d="M174.436 262.278C174.697 262.278 175.221 262.403 175.482 262.403C174.043 263.772 170.771 266.386 169.201 267.257C169.201 267.257 168.678 267.257 168.416 267.257C170.902 265.639 173.52 263.398 174.436 262.278Z" fill="black"/>
<path d="M178.754 262.652H179.801C178.754 263.772 175.875 265.763 175.221 266.261C174.828 266.386 174.043 266.51 174.043 266.51C176.137 265.266 177.969 263.772 178.754 262.652Z" fill="black"/>
<path d="M172.734 262.278C172.473 262.278 171.949 262.278 171.949 262.278C170.771 263.398 167.631 266.51 166.846 267.008C167.107 267.133 167.369 267.008 167.369 267.008C170.117 265.017 172.211 263.025 172.734 262.278Z" fill="black"/>
<path d="M169.725 261.905C169.725 261.905 170.248 262.029 170.51 262.154C169.594 263.274 166.584 265.39 165.406 266.261C167.369 264.643 169.332 262.527 169.725 261.905Z" fill="black"/>
<path d="M191.84 231.158C192.625 231.034 193.018 230.785 193.41 230.66C194.588 228.918 196.813 226.428 201 226.553C195.504 226.428 193.803 228.793 191.84 231.158Z" fill="black"/>
<path d="M194.85 230.411C198.383 230.038 202.963 230.162 205.057 232.403C206.496 233.897 208.197 239.623 203.355 241.863C205.188 241.739 207.805 240.619 208.59 238.876C207.543 239.872 206.758 240.121 206.234 240.494C205.711 240.868 205.58 240.868 206.234 239.872C206.889 238.876 207.674 236.884 206.627 234.021C205.711 231.158 202.701 228.669 194.85 230.411Z" fill="black"/>
<path d="M194.588 230.287C194.98 230.162 195.766 230.038 195.766 230.038C196.682 228.793 197.99 227.299 199.299 226.926C197.598 227.299 195.373 229.291 194.588 230.287Z" fill="black"/>
<path d="M196.682 229.789C197.074 229.789 197.598 229.664 197.729 229.664C198.775 228.171 199.43 227.548 200.477 226.926C199.168 227.548 197.729 228.544 196.682 229.789Z" fill="black"/>
<path d="M198.645 229.665C198.906 229.665 199.561 229.665 199.822 229.665C200.738 228.171 201.523 227.548 202.309 227.175C199.953 228.046 199.561 228.669 198.645 229.665Z" fill="black"/>
<path d="M200.607 229.54C200.869 229.54 201.393 229.789 201.523 229.789C202.178 228.918 203.355 227.797 204.01 227.548C202.439 228.046 201.393 228.793 200.607 229.54Z" fill="black"/>
<path d="M146.955 228.669L146.693 229.789C145.908 230.287 144.73 231.407 144.73 231.407C144.73 231.407 144.469 232.279 144.861 231.158C145.254 230.162 145.385 229.54 145.385 229.54C146.301 229.042 146.955 228.669 146.955 228.669Z" fill="black"/>
<path d="M146.693 230.909C146.562 231.407 146.563 232.03 146.563 232.03C145.254 232.901 144.469 234.021 144.076 234.519C144.207 233.897 144.6 232.901 144.6 232.652C145.516 231.407 146.17 231.283 146.693 230.909Z" fill="black"/>
<path d="M146.563 234.021C146.693 233.648 146.693 233.025 146.693 233.025C145.385 234.021 144.338 235.017 143.945 235.391C143.814 235.764 143.814 236.386 143.814 236.386C144.469 235.515 146.17 234.395 146.563 234.021Z" fill="black"/>
<path d="M146.562 234.893C146.562 234.893 146.562 235.391 146.562 235.515C144.6 237.258 143.684 238.752 143.422 239.125C143.422 239.125 143.553 238.254 143.684 237.88C144.73 236.76 145.646 235.64 146.562 234.893Z" fill="black"/>
<path d="M146.562 236.635C146.562 236.635 146.562 237.258 146.562 237.507C144.992 238.876 143.945 240.619 143.291 241.49C143.422 241.241 143.291 240.245 143.422 239.996C144.6 238.378 145.908 237.133 146.562 236.635Z" fill="black"/>
<path d="M146.693 238.751V239.374C144.861 241.117 143.291 242.984 143.16 243.233C144.076 241.615 145.516 240.121 146.693 238.751Z" fill="black"/>
<path d="M146.955 240.868C146.955 241.117 147.086 241.615 147.086 241.615C145.385 243.357 144.992 244.229 144.076 245.349C144.73 243.606 146.039 241.863 146.955 240.868Z" fill="black"/>
<path d="M147.871 243.233C147.871 243.233 148.133 243.98 148.264 244.104C147.086 245.473 145.646 246.469 144.992 247.714C145.777 245.971 147.086 244.353 147.871 243.233Z" fill="black"/>
<path d="M148.787 245.722C148.918 245.847 149.049 246.22 149.049 246.22C148.002 247.341 146.301 248.71 145.646 249.706C146.432 248.087 147.609 246.967 148.787 245.722Z" fill="black"/>
<path d="M107.828 179.375C104.687 174.396 106.127 169.79 109.398 168.67C112.801 167.549 121.307 166.056 125.625 163.441C131.121 160.081 138.711 149.375 128.635 136.429C130.729 142.778 131.121 147.882 127.064 150.496C123.008 152.985 118.035 153.234 110.576 154.479C100.107 156.346 96.0508 168.172 107.828 179.375Z" fill="#D8C5AC" stroke="black" stroke-width="0.6075" stroke-linecap="round" stroke-linejoin="round"/>
<path d="M129.682 138.795C128.766 136.927 127.326 134.438 128.766 132.073C126.934 133.691 126.148 136.18 126.279 138.795C126.41 141.907 125.756 148.504 123.4 152.114C129.289 151.242 132.168 144.147 129.682 138.795Z" fill="#ECDECB" stroke="black" stroke-width="0.6075" stroke-linecap="round" stroke-linejoin="round"/>
<path d="M128.635 132.322C129.682 130.703 132.561 130.952 136.617 133.94C152.975 145.641 159.91 165.433 156.508 179.499C152.582 180.869 144.992 182.487 142.637 182.86C145.254 173.773 139.627 160.329 131.645 156.346C135.047 150.745 134.654 143.525 129.551 138.421C128.373 135.932 127.457 134.064 128.635 132.322Z" fill="#D8C5AC" stroke="black" stroke-width="0.6075" stroke-linecap="round" stroke-linejoin="round"/>
<path d="M103.117 170.412C101.809 166.304 101.678 162.446 103.379 160.329C102.855 163.317 102.594 166.802 103.117 170.412Z" fill="black"/>
<path d="M104.164 172.902C103.902 172.404 103.379 171.159 103.379 171.159C102.986 166.553 103.248 161.574 103.771 159.334C104.426 158.587 104.557 158.338 104.949 157.964C104.164 161.823 103.641 168.047 104.164 172.902Z" fill="black"/>
<path d="M104.426 173.524C104.426 173.524 104.949 174.52 105.211 175.018C104.688 170.039 105.473 161.201 106.65 157.093C105.865 157.466 105.473 157.84 105.473 157.84C104.818 162.072 104.164 168.047 104.426 173.524Z" fill="black"/>
<path d="M105.473 171.906C105.604 171.408 105.996 170.537 106.258 170.163C106.389 166.304 107.043 160.454 107.828 156.595C106.127 160.703 105.604 165.682 105.473 171.906Z" fill="black"/>
<path d="M106.65 169.541C106.912 169.167 107.566 168.545 107.566 168.545C107.566 166.056 108.352 160.827 109.268 156.844C108.09 159.707 106.781 165.06 106.65 169.541Z" fill="black"/>
<path d="M108.221 168.047C108.875 167.674 109.398 167.425 109.398 167.425C109.529 164.562 109.791 161.201 110.707 157.591C109.137 161.201 108.613 164.686 108.221 168.047Z" fill="black"/>
<path d="M112.539 158.089C111.754 160.454 110.969 165.309 110.838 167.051C110.445 167.176 109.922 167.3 109.922 167.3C110.053 165.309 110.969 161.45 112.539 158.089Z" fill="black"/>
<path d="M114.502 158.587C113.848 160.081 112.801 165.682 112.67 166.802C112.277 166.927 111.754 166.927 111.754 166.927C112.146 164.188 113.324 160.578 114.502 158.587Z" fill="black"/>
<path d="M116.465 158.96C115.811 160.827 114.633 165.06 114.633 166.429C114.24 166.553 113.717 166.553 113.717 166.553C113.979 163.939 115.68 160.827 116.465 158.96Z" fill="black"/>
<path d="M118.035 159.707C117.643 160.952 116.727 164.562 116.596 166.056C116.334 166.18 115.549 166.304 115.549 166.304C115.941 164.064 117.381 161.325 118.035 159.707Z" fill="black"/>
<path d="M144.469 179.001C147.217 177.757 152.713 175.143 155.984 172.653C155.984 173.151 155.854 173.898 155.854 173.898C152.713 176.263 146.955 179.375 144.338 180.62C144.469 179.997 144.469 179.001 144.469 179.001Z" fill="black"/>
<path d="M144.338 181.118C147.871 179.499 153.105 176.761 155.854 174.645C155.854 175.143 155.723 176.014 155.723 176.014C151.143 178.877 148.395 180.371 146.17 181.491C146.17 181.491 144.73 181.864 144.338 181.989C144.469 181.615 144.338 181.118 144.338 181.118Z" fill="black"/>
<path d="M148.133 180.869C149.049 180.744 150.75 180.246 151.404 180.122C153.629 179.001 155.592 178.006 155.592 178.006C155.723 177.508 155.723 176.761 155.723 176.761C152.975 178.379 151.012 179.624 148.133 180.869Z" fill="black"/>
<path d="M144.469 177.01C144.469 177.383 144.469 178.13 144.469 178.255C148.002 176.387 151.404 174.52 155.984 171.408C155.984 171.035 155.854 170.412 155.854 170.412C152.713 172.653 147.086 175.889 144.469 177.01Z" fill="black"/>
<path d="M144.338 174.769C144.338 174.769 144.469 175.516 144.469 175.765C147.348 174.147 153.236 170.91 155.854 168.794C155.854 168.421 155.723 168.172 155.723 168.172C152.713 170.163 146.824 173.649 144.338 174.769Z" fill="black"/>
<path d="M143.945 172.653C143.945 173.026 144.076 173.524 144.076 173.524C147.871 171.408 151.404 169.292 154.676 166.927C152.059 168.172 147.479 170.786 143.945 172.653Z" fill="black"/>
<path d="M152.844 165.931C151.012 167.176 146.563 170.163 143.684 171.408C143.684 171.408 143.553 171.035 143.553 170.91C146.039 169.79 151.012 167.051 152.844 165.931Z" fill="black"/>
<path d="M149.703 165.433C148.395 166.553 144.207 168.794 143.16 169.416L142.898 168.919C145.777 167.549 147.871 166.553 149.703 165.433Z" fill="black"/>
<path d="M133.738 155.724L134.262 155.973C136.094 153.359 138.188 149.126 139.365 145.143C137.664 149.002 134.916 153.981 133.738 155.724Z" fill="black"/>
<path d="M135.047 156.844L135.57 157.342C137.926 153.981 140.543 149.624 142.506 144.147C140.674 147.384 138.58 152.238 135.047 156.844Z" fill="black"/>
<path d="M143.814 146.388C142.768 149.002 138.842 155.973 136.879 158.462L136.617 158.089C139.234 154.603 142.113 150.745 143.814 146.388Z" fill="black"/>
<path d="M127.457 135.683C127.588 136.056 127.719 137.052 127.98 137.674C127.85 140.413 128.373 146.014 126.41 149.873C125.756 150.247 124.971 150.496 124.971 150.496C127.85 143.4 126.672 139.168 127.457 135.683Z" fill="black"/>
<path d="M128.373 139.043C128.635 139.666 128.766 140.039 128.896 140.164C128.635 142.778 129.289 145.516 128.373 148.006C127.98 148.628 127.588 149.126 127.326 149.251C128.635 145.516 128.373 141.533 128.373 139.043Z" fill="black"/>
<path d="M129.158 141.16C129.42 142.031 129.943 143.774 129.289 145.89C129.42 144.147 129.027 142.529 129.158 141.16Z" fill="black"/>
<path d="M99.9766 207.383C100.369 208.005 101.023 208.876 101.023 208.876C102.201 204.52 102.201 183.856 101.678 173.649C101.416 186.47 101.416 200.785 99.9766 207.383Z" fill="black"/>
<path d="M101.809 209.748L102.594 210.744C103.902 203.275 103.379 193.565 103.379 185.723C102.725 192.943 103.51 205.267 101.809 209.748Z" fill="black"/>
<path d="M103.379 211.366L104.033 212.113C105.473 207.258 104.818 201.781 104.949 194.686C104.426 200.661 104.557 206.013 103.379 211.366Z" fill="black"/>
<path d="M350.572 189.458C344.684 183.856 330.682 178.877 304.51 178.877C268 178.877 231.883 193.317 197.729 207.134C177.314 215.349 153.76 223.938 132.168 223.938C113.979 223.938 104.033 215.1 99.8457 209.25C99.8457 209.001 99.7149 208.627 99.8457 208.254C104.033 214.229 113.979 223.067 132.168 223.067C153.891 223.067 177.314 214.602 197.729 206.387C231.883 192.57 268 178.255 304.51 178.255C330.682 178.255 344.814 183.358 350.572 188.835C350.965 188.96 350.834 189.707 350.572 189.458Z" fill="black"/>
<path d="M196.812 211.366C172.996 221.449 153.367 227.797 130.205 227.922C105.473 227.922 99.4531 210.246 99.4531 210.246C102.201 215.474 111.754 226.677 129.551 226.677C156.9 226.553 174.174 219.084 196.943 209.748C223.246 199.043 265.252 181.864 310.791 181.118C325.316 180.869 340.496 183.109 350.049 190.453C337.355 182.86 322.176 182.487 311.053 182.362C286.713 182.113 249.025 189.209 196.812 211.366Z" fill="black"/>
<path d="M335.916 154.852C336.439 155.101 337.225 156.222 337.225 156.222C341.543 164.562 346.908 177.757 349.133 186.221C345.207 176.761 340.365 162.072 335.916 154.852Z" fill="black"/>
<path d="M333.168 152.363C333.691 152.612 334.738 153.981 334.738 153.981C339.057 163.192 347.17 181.989 347.17 185.101C347.17 185.101 346.908 184.976 346.385 184.727C344.029 176.263 337.748 162.197 333.168 152.363Z" fill="black"/>
<path d="M331.99 152.363C335.523 159.707 344.16 179.375 344.553 183.607L343.768 183.358C341.412 172.404 334.607 160.329 331.99 152.363Z" fill="black"/>
<path d="M331.205 153.608C334.738 160.952 342.459 178.379 342.852 182.736L342.066 182.487C339.449 172.031 333.822 161.574 331.205 153.608Z" fill="black"/>
<path d="M330.289 156.346C333.822 163.69 339.973 177.383 340.365 181.74L339.58 181.491C336.832 171.035 332.906 164.313 330.289 156.346Z" fill="black"/>
<path d="M330.42 161.574C333.953 168.919 336.963 175.765 337.748 180.744L336.963 180.495C336.047 175.64 333.037 169.541 330.42 161.574Z" fill="black"/>
<path d="M330.813 167.674C333.561 173.151 334.738 176.636 335 179.748L334.215 179.499C334.084 178.006 333.299 174.894 330.813 167.674Z" fill="black"/>
<path d="M334.869 185.225C334.607 191.076 334.738 202.404 338.664 209.499C337.617 203.399 339.842 199.789 344.029 198.794C348.086 197.798 350.965 197.549 351.357 194.686C351.75 191.823 343.768 187.093 334.869 185.225Z" fill="#ECDECB" stroke="black" stroke-width="0.6075" stroke-linecap="round" stroke-linejoin="round"/>
<path d="M345.6 170.412V170.288C349.264 169.416 353.32 170.288 357.246 169.168C359.34 168.545 369.678 165.433 370.594 163.69C367.322 170.412 365.621 179.375 369.939 186.097C372.949 190.827 380.408 196.304 384.988 190.329C384.857 196.926 386.166 203.399 381.979 209.125C376.875 216.096 367.846 220.204 359.078 220.204C347.955 220.204 338.271 215.349 338.271 206.885C338.271 199.789 343.375 198.669 345.207 198.171C347.039 197.673 350.311 198.545 351.881 193.814C354.367 186.47 346.777 177.508 345.6 170.412Z" fill="#D8C5AC" stroke="black" stroke-width="0.6075" stroke-linecap="round" stroke-linejoin="round"/>
<path d="M347.039 190.827C347.563 191.076 348.086 191.574 348.086 191.574C348.217 192.819 347.955 195.184 348.348 196.802C347.824 196.802 347.563 197.051 347.563 197.051C347.039 195.308 347.039 191.574 347.039 190.827Z" fill="black"/>
<path d="M348.609 191.947C348.74 192.694 348.74 195.682 348.871 196.18C349.787 195.931 351.227 193.69 348.609 191.947Z" fill="black"/>
<path d="M346.254 190.453C345.861 190.205 345.207 189.956 345.207 189.956C345.338 191.574 345.6 195.682 345.992 196.926L346.647 196.802C346.254 194.81 346.254 191.947 346.254 190.453Z" fill="black"/>
<path d="M344.422 189.582L343.506 189.209C343.768 191.449 344.291 196.18 344.553 197.3C344.814 197.3 345.338 197.051 345.338 197.051C344.684 195.059 344.553 190.702 344.422 189.582Z" fill="black"/>
<path d="M342.721 188.835L341.805 188.337C341.805 189.831 342.721 196.055 343.244 197.424C343.637 197.3 343.898 197.175 343.898 197.175C343.244 194.686 342.852 190.453 342.721 188.835Z" fill="black"/>
<path d="M342.459 197.673C342.459 197.673 341.936 197.798 341.805 198.047C340.758 194.561 340.234 189.956 340.234 188.088C340.627 188.213 341.15 188.462 341.15 188.462C341.281 190.827 341.936 195.557 342.459 197.673Z" fill="black"/>
<path d="M341.02 198.296C341.02 198.296 340.496 198.669 340.234 198.918C339.58 195.931 338.926 189.582 338.926 187.715C339.187 187.839 339.58 188.088 339.58 188.088C339.842 190.702 340.365 196.055 341.02 198.296Z" fill="black"/>
<path d="M339.711 199.043C339.449 199.292 339.188 199.665 339.188 199.665C338.664 197.051 337.748 189.956 337.879 187.342L338.402 187.59C338.402 189.956 338.795 196.055 339.711 199.043Z" fill="black"/>
<path d="M338.402 200.536C338.402 200.536 338.01 201.283 337.879 201.532C337.225 198.42 336.439 189.209 336.701 187.217L336.963 187.342C337.094 191.076 338.01 198.918 338.402 200.536Z" fill="black"/>
<path d="M337.355 202.404C337.225 202.777 337.094 203.399 337.094 203.648C336.178 198.669 335.262 190.08 335.654 187.093C335.916 189.956 336.57 198.918 337.355 202.404Z" fill="black"/>
<path d="M339.449 205.142C339.318 208.379 341.281 217.963 359.078 217.963C376.875 217.963 384.596 204.52 384.465 196.677C384.857 206.262 377.268 219.582 359.078 219.582C340.758 219.457 338.271 208.503 339.449 205.142Z" fill="black"/>
<path d="M342.721 209.001C344.422 211.864 348.871 215.225 356.592 215.1C365.621 214.976 375.959 211.491 380.277 200.163C377.791 209.125 368.893 215.847 356.592 215.847C351.619 215.723 344.553 214.105 342.721 209.001Z" fill="black"/>
<path d="M341.543 201.532L340.889 202.155C340.758 204.146 341.543 206.885 341.936 207.507C341.281 204.644 341.412 203.026 341.543 201.532Z" fill="black"/>
<path d="M342.852 200.785L343.506 200.412C344.16 204.395 345.207 209.125 345.861 210.619L345.338 210.37C344.029 206.76 343.113 203.15 342.852 200.785Z" fill="black"/>
<path d="M344.553 200.287L345.207 199.914C346.254 204.893 347.693 209.872 348.609 212.362C348.086 212.237 347.693 211.864 347.693 211.864C345.73 206.885 344.814 202.652 344.553 200.287Z" fill="black"/>
<path d="M345.992 199.914L346.908 199.665C348.086 204.146 349.525 210.246 350.965 213.482C350.572 213.358 349.918 212.984 349.918 212.984C348.217 208.503 346.646 203.15 345.992 199.914Z" fill="black"/>
<path d="M347.824 199.54L348.478 199.416C349.395 203.773 351.75 211.117 352.797 213.98C352.273 213.856 351.881 213.607 351.881 213.607C350.049 208.752 348.217 202.404 347.824 199.54Z" fill="black"/>
<path d="M349.395 199.292L350.18 198.918C351.096 202.652 353.189 210.619 354.629 214.354C354.236 214.229 353.582 214.229 353.582 214.229C352.143 209.872 350.049 202.528 349.395 199.292Z" fill="black"/>
<path d="M351.096 198.669C351.096 198.669 351.619 198.296 351.75 198.047C352.666 203.275 355.152 211.988 356.199 214.478C355.807 214.478 355.283 214.354 355.283 214.354C354.105 210.619 351.881 203.648 351.096 198.669Z" fill="black"/>
<path d="M353.189 200.038C353.582 201.781 356.33 212.86 357.115 214.354H357.77C356.854 211.615 353.844 202.652 353.189 200.038Z" fill="black"/>
<path d="M354.891 200.785C355.545 203.773 357.246 211.242 358.555 214.105C358.947 214.105 359.209 213.98 359.209 213.98C357.508 209.623 355.283 202.901 354.891 200.785Z" fill="black"/>
<path d="M356.461 201.283C356.854 203.524 359.602 212.486 360.125 213.856H360.779C359.471 210.744 356.984 202.901 356.461 201.283Z" fill="black"/>
<path d="M358.162 201.408C358.816 204.395 360.648 211.864 361.434 213.607L362.219 213.482C360.779 209.374 358.816 203.524 358.162 201.408Z" fill="black"/>
<path d="M360.387 202.652C361.041 205.018 363.004 212.113 363.527 213.233L364.443 212.984C362.742 208.13 360.779 204.146 360.387 202.652Z" fill="black"/>
<path d="M362.873 204.146C363.527 206.262 365.098 211.242 365.49 212.486C366.145 212.237 366.406 212.113 366.406 212.113C365.098 209.001 363.92 206.511 362.873 204.146Z" fill="black"/>
<path d="M135.963 203.275V217.092L130.859 217.341V191.449L135.963 191.2V199.54L144.076 199.043V190.702L149.049 190.453V216.345L144.076 216.594V202.777L135.963 203.275Z" fill="#401B17"/>
<path d="M162.789 187.093C166.584 185.972 170.117 186.47 170.51 191.823L172.996 210.121L168.285 211.491L166.846 199.043L159.387 201.159L158.863 214.229L154.152 215.598L155.199 189.458L162.789 187.093ZM166.191 195.308C165.799 191.698 165.014 190.205 161.873 191.076L159.648 191.698L159.518 197.175L166.191 195.308Z" fill="#401B17"/>
<path d="M186.605 179.126L202.701 172.653V198.545L198.121 200.412V178.255L191.055 181.118V203.275L186.475 205.142V179.126H186.605Z" fill="#401B17"/>
<path d="M215.525 166.927C221.283 164.686 224.424 168.919 224.424 176.885C224.424 184.852 221.414 191.698 215.525 194.063C209.898 196.304 207.02 191.823 207.02 183.856V183.732C206.758 175.889 210.16 169.043 215.525 166.927ZM211.338 182.113C211.338 187.342 212.646 191.325 215.525 190.205C218.404 188.96 219.844 184.23 219.844 178.752C219.844 173.275 218.797 169.541 215.525 170.91C212.777 172.031 211.338 176.761 211.338 182.113Z" fill="#401B17"/>
<path d="M228.48 162.57L242.744 157.715V161.574L233.322 164.811V169.79L240.912 167.176V171.035L233.322 173.649V182.985L242.744 179.748V183.607L228.611 188.337V162.57H228.48Z" fill="#401B17"/>
<path d="M260.803 158.96C260.803 161.823 259.102 164.437 257.793 165.309C259.887 165.682 262.242 167.051 262.242 171.035C262.242 176.138 257.008 182.238 245.885 182.736V178.379C251.904 178.877 257.4 175.516 257.4 172.155C257.4 169.043 254.26 167.798 249.68 169.79V166.056C255.438 164.437 256.092 161.948 255.961 160.205C255.961 158.338 251.381 157.466 246.146 160.329V156.346C252.166 153.483 260.672 153.234 260.803 158.96Z" fill="#401B17"/>
<path d="M268.785 150.994L275.328 149.998C281.74 149.002 283.049 152.114 283.311 154.106L285.666 170.661L288.022 170.288V175.765L283.18 176.512V174.645L269.178 176.761V178.628L264.336 179.375V174.022C265.645 173.649 267.738 172.902 267.869 169.168L268.785 150.994ZM273.627 153.857L272.973 168.421C272.711 171.284 272.318 172.28 271.926 172.777L280.824 171.408L278.992 158.338C278.861 153.234 276.768 153.11 273.627 153.857Z" fill="#401B17"/>
<path d="M300.061 155.475C303.594 152.612 310.66 153.483 310.137 163.441C310.137 166.056 309.09 173.898 300.453 173.524L294.957 173.649V151.491L290.508 151.616V147.882L300.061 147.757V155.475ZM299.93 170.039C302.809 170.288 304.771 168.172 304.902 162.446C304.902 159.334 303.855 157.964 302.678 157.964C300.846 157.964 300.061 159.458 300.061 162.072V170.039H299.93Z" fill="#401B17"/>
</g>
<defs>
<clipPath id="clip0_1_5">
<rect width="469" height="269" fill="white"/>
</clipPath>
</defs>
</svg>
