<svg width="490" height="35" viewBox="0 0 490 35" fill="none" xmlns="http://www.w3.org/2000/svg">
<path d="M19.2576 35C15.7806 35 12.3035 34.4656 9.09389 32.8626C3.47707 29.6565 0 23.7786 0 17.3664C0 6.14504 8.82642 0 19.2576 0C22.7347 0 26.2118 0.534351 29.4214 2.1374C35.0382 5.07634 38.5153 10.9542 38.5153 17.3664C38.7828 28.5878 29.6889 35 19.2576 35ZM19.2576 5.87786C12.571 5.87786 7.48908 10.687 7.48908 17.3664C7.48908 24.313 12.571 29.1221 19.2576 29.1221C25.9443 29.1221 31.0262 24.313 31.0262 17.3664C31.2937 10.4198 26.2118 5.87786 19.2576 5.87786Z" fill="#401B17"/>
<path d="M74.8908 30.4579L74.3559 30.9923C74.0884 30.7251 73.821 30.4579 73.286 30.4579C71.6812 30.4579 66.5993 34.9999 59.3777 34.9999C50.2838 34.9999 42.2598 30.1907 42.2598 20.3053C42.2598 10.4198 50.2838 5.6106 59.3777 5.6106C67.4017 5.6106 71.1463 9.8854 73.0186 10.1526C73.286 10.1526 73.821 9.8854 74.0884 9.61823L74.8908 9.88541L70.8788 16.0304L70.3439 15.7633C70.3439 15.4961 70.3439 15.2289 70.3439 14.9617C70.3439 12.5572 62.5873 10.6869 59.9127 10.6869C54.5633 10.6869 49.4814 14.4274 49.4814 20.0381C49.4814 25.6488 54.5633 29.3892 59.9127 29.3892C62.5873 29.3892 64.9945 28.8549 67.4017 27.519C68.2041 26.9846 70.3439 26.1831 70.3439 25.1144C70.3439 24.8472 70.3439 24.5801 70.3439 24.5801L70.8788 24.0457L74.8908 30.4579Z" fill="#401B17"/>
<path d="M95.2183 34.9999C86.3919 34.9999 78.6354 29.9236 78.6354 20.3053C78.6354 10.6869 86.3919 5.6106 95.2183 5.6106C104.045 5.6106 111.801 10.6869 111.801 20.3053C111.801 29.6564 104.045 34.9999 95.2183 34.9999ZM95.2183 10.6869C89.869 10.6869 85.5895 14.6946 85.5895 20.0381C85.5895 25.6488 89.869 29.3892 95.2183 29.3892C100.568 29.3892 104.847 25.6488 104.847 20.0381C104.847 14.6946 100.568 10.6869 95.2183 10.6869Z" fill="#401B17"/>
<path d="M135.338 34.1985H115.278V33.397C116.348 33.1298 116.883 32.5954 116.883 31.5267V8.54963C116.883 7.48092 116.348 6.94657 115.278 6.6794V6.14505H140.688C141.758 6.14505 142.293 5.61069 142.56 4.54199H143.362V12.8244H142.56C142.293 11.7557 141.758 11.2214 140.688 11.2214H123.57V16.5649H134.803C140.42 16.5649 146.037 18.9695 146.037 25.3817C146.305 32.0611 140.688 34.1985 135.338 34.1985ZM134.269 29.1221C136.676 29.1221 139.35 28.3206 139.35 25.3817C139.35 22.4428 136.676 21.6412 134.269 21.6412H123.837V29.1221H134.269Z" fill="#401B17"/>
<path d="M167.702 16.0305C173.319 16.0305 179.738 17.6336 179.738 25.1145C179.738 32.8626 173.319 34.1985 167.702 34.1985H149.782V33.3969C150.852 33.1297 151.386 32.5954 151.386 31.5267V8.5496C151.386 7.4809 150.852 6.94655 149.782 6.67937V6.14502H159.678V6.67937C158.876 6.94655 158.073 7.4809 158.073 8.5496V16.0305H167.702ZM167.434 21.1069H158.073V29.1221H167.434C169.842 29.1221 172.784 28.8549 172.784 25.1145C173.051 21.6412 169.842 21.1069 167.434 21.1069ZM182.68 6.67937V6.14502H192.576V6.67937C191.774 6.94655 190.972 7.4809 190.972 8.5496V31.5267C190.972 32.5954 191.774 33.1297 192.576 33.3969V34.1985H182.68V33.3969C183.483 33.1297 184.285 32.5954 184.285 31.5267V8.5496C184.285 7.4809 183.483 6.94655 182.68 6.67937Z" fill="#401B17"/>
<path d="M218.521 34.1983V33.3968C219.591 33.1296 220.126 32.5952 220.126 31.5265V22.7097H213.439L207.822 30.725C207.287 31.2594 207.02 31.7937 207.02 32.3281C207.02 33.1296 207.822 33.1296 208.357 33.3968V34.1983H196.588V33.3968C198.461 33.1296 199.798 31.2594 200.868 29.6563L206.217 22.1754C201.67 21.1067 198.193 19.2365 198.193 14.1601C198.193 6.94639 204.345 5.87769 210.229 5.87769H228.684V6.41204C227.615 6.67921 227.08 7.21356 227.08 8.28227V31.2594C227.08 32.3281 227.615 32.8624 228.684 33.1296V33.9311H218.521V34.1983ZM220.126 11.2212H209.962C207.555 11.2212 204.88 11.2212 204.88 14.4273C204.88 17.3662 207.822 17.6334 209.962 17.6334H220.126V11.2212Z" fill="#401B17"/>
<path d="M278.433 6.67937C277.364 6.94655 276.829 7.4809 276.829 8.5496V31.5267C276.829 32.5954 277.364 33.1297 278.433 33.3969V34.1985H268.537V33.3969C269.607 33.1297 270.142 32.5954 270.142 31.5267V11.2214H254.361V31.7939C254.361 32.8626 255.164 33.3969 255.966 33.6641V34.4656H246.07V33.6641C247.14 33.3969 247.675 32.8626 247.675 31.7939V8.5496C247.675 7.4809 247.14 6.94655 246.07 6.67937V6.14502H278.433V6.67937Z" fill="#401B17"/>
<path d="M290.469 31.7939C290.469 32.8626 291.272 33.3969 292.074 33.6641V34.4656H282.178V33.6641C283.248 33.3969 283.783 32.8626 283.783 31.7939V8.5496C283.783 7.4809 283.248 6.94655 282.178 6.67937V6.14502H300.633C306.25 6.14502 312.402 7.4809 312.402 14.4275C312.402 21.1068 306.25 22.7099 300.633 22.7099H290.469V31.7939ZM300.098 17.6336C302.505 17.6336 305.18 17.6336 305.18 14.4275C305.18 11.2214 302.238 11.2214 300.098 11.2214H290.469V17.6336H300.098Z" fill="#401B17"/>
<path d="M322.833 27.2519C322.298 28.5878 320.693 30.7252 320.693 32.061C320.693 32.8626 321.496 33.3969 322.298 33.6641V34.4656H311.867V33.6641C313.204 33.3969 313.739 32.5954 314.274 31.2595L324.705 10.4198C324.973 9.88548 325.24 9.08395 325.24 8.28242C325.24 7.4809 324.438 6.94655 323.635 6.67937V6.14502H334.602V6.67937C333.799 6.94655 333.264 7.4809 333.264 8.28242C333.264 9.08395 333.532 9.88548 333.799 10.4198L344.498 30.7252C345.3 32.061 345.835 33.1297 347.44 33.3969V34.1985H335.939V33.3969C336.741 33.1297 337.544 32.8626 337.544 31.7939C337.544 29.9236 336.206 28.5878 335.404 26.9847H322.833V27.2519ZM328.985 14.1603L324.705 23.2443H333.799L328.985 14.1603Z" fill="#401B17"/>
<path d="M381.141 25.916C381.141 32.061 375.524 34.1985 370.442 34.1985H350.382V33.3969C351.452 33.1297 351.987 32.5954 351.987 31.5267V8.5496C351.987 7.4809 351.452 6.94655 350.382 6.67937V6.14502H370.175C374.722 6.14502 380.338 7.4809 380.338 13.3588C380.338 16.2977 378.734 17.9007 376.326 19.2366C379.536 20.5725 381.141 22.4427 381.141 25.916ZM369.105 16.5649C370.977 16.5649 373.652 16.5649 373.652 13.8931C373.652 11.2214 371.245 11.2214 369.105 11.2214H358.674V16.5649H369.105ZM369.372 29.1221C371.78 29.1221 374.454 28.3206 374.454 25.3817C374.454 22.4427 371.78 21.6412 369.372 21.6412H358.941V29.1221H369.372Z" fill="#401B17"/>
<path d="M393.177 30.9923V31.7939C393.177 32.8626 393.979 33.3969 394.782 33.6641V34.4656H384.885V33.6641C385.955 33.3969 386.49 32.8626 386.49 31.7939V8.5496C386.49 7.4809 385.955 6.94655 384.885 6.67937V6.14502H394.782V6.67937C393.979 6.94655 393.177 7.4809 393.177 8.5496V23.7786L408.957 9.35113V8.5496C408.957 7.4809 408.423 6.94655 407.353 6.67937V6.14502H417.249V6.67937C416.179 6.94655 415.644 7.4809 415.644 8.5496V31.5267C415.644 32.5954 416.179 33.1297 417.249 33.3969V34.1985H407.353V33.3969C408.423 33.1297 408.957 32.5954 408.957 31.5267V16.5649L393.177 30.9923Z" fill="#401B17"/>
<path d="M441.856 34.1985V33.3969C442.926 33.1297 443.461 32.5954 443.461 31.5267V11.2214H430.89V21.6412C430.89 30.9923 427.68 34.1985 423.133 34.1985H419.656V28.5878H420.459C420.459 29.1221 420.993 29.3893 421.261 29.3893C422.866 29.3893 423.936 27.2519 423.936 21.9084V8.5496C423.936 7.4809 423.401 6.94655 422.331 6.67937V6.14502H451.752V6.67937C450.682 6.94655 450.147 7.4809 450.147 8.5496V31.5267C450.147 32.5954 450.682 33.1297 451.752 33.3969V34.1985H441.856Z" fill="#401B17"/>
<path d="M464.858 27.2519C464.323 28.5878 462.718 30.7252 462.718 32.061C462.718 32.8626 463.521 33.3969 464.323 33.6641V34.4656H453.892V33.6641C455.229 33.3969 455.764 32.5954 456.299 31.2595L466.73 10.4198C466.998 9.88548 467.265 9.08395 467.265 8.28242C467.265 7.4809 466.463 6.94655 465.661 6.67937V6.14502H476.627V6.67937C475.824 6.94655 475.289 7.4809 475.289 8.28242C475.289 9.08395 475.557 9.88548 475.824 10.4198L486.523 30.7252C487.325 32.061 487.86 33.1297 489.465 33.3969V34.1985H477.964V33.3969C478.766 33.1297 479.569 32.8626 479.569 31.7939C479.569 29.9236 478.231 28.5878 477.429 26.9847H464.858V27.2519ZM471.01 14.1603L466.73 23.2443H475.824L471.01 14.1603Z" fill="#401B17"/>
</svg>
