<?xml version="1.0" encoding="utf-8"?>
<!-- Generator: Adobe Illustrator 25.4.1, SVG Export Plug-In . SVG Version: 6.00 Build 0)  -->
<svg version="1.1" id="Layer_1" xmlns="http://www.w3.org/2000/svg" xmlns:xlink="http://www.w3.org/1999/xlink" x="0px" y="0px"
	 viewBox="0 0 404.7 38" style="enable-background:new 0 0 404.7 38;" xml:space="preserve">
<style type="text/css">
	.st0{clip-path:url(#SVGID_00000071525622251372811330000004562270775281315006_);}
	.st1{fill:#401B17;}
	.st2{fill:none;stroke:#401B17;stroke-miterlimit:10;}
</style>
<g>
	<defs>
		<rect id="SVGID_1_" y="0" width="380" height="38"/>
	</defs>
	<clipPath id="SVGID_00000034807878421168258300000004551966767479972246_">
		<use xlink:href="#SVGID_1_"  style="overflow:visible;"/>
	</clipPath>
	<g style="clip-path:url(#SVGID_00000034807878421168258300000004551966767479972246_);">
		<path class="st1" d="M1.7,27.7H0V17.5h1.7v3.5C2.6,21.3,4,21.3,4,20.1v-2.5h1.7l0.1,2.6c0,1.6-0.6,2.1-1.1,2.3l1.9,5.3H4.6
			l-1.8-5.2c-0.3,0-0.9,0-1.2,0V27.7z"/>
		<path class="st1" d="M10.9,17.3c2.1,0,3.2,2.2,3.2,5.3c0,3.2-1.1,5.4-3.2,5.4c-2.1,0-3.1-2.2-3.1-5.4C7.8,19.5,9,17.3,10.9,17.3z
			 M9.4,22.6c0,2.1,0.5,3.9,1.5,3.8c1,0,1.5-1.7,1.5-3.9s-0.4-3.8-1.5-3.8C9.9,18.8,9.4,20.5,9.4,22.6z"/>
		<path class="st1" d="M19.1,17.6c2.5-0.1,2.6,1.6,2.8,3.5l0.7,6.7H21l-0.7-6.3c-0.2-2.3-0.5-2.4-1.7-2.4l-0.4,6.7
			c-0.1,1.5-0.4,2.3-2.7,1.9v-1.5c0.5,0.2,0.9,0.2,1-0.8l0.4-7.8H19.1z"/>
		<path class="st1" d="M27.4,17.6c2.5-0.1,2.6,1.6,2.8,3.5l0.7,6.7h-1.7l-0.7-6.3c-0.2-2.3-0.5-2.4-1.7-2.4l-0.4,6.7
			c-0.1,1.5-0.4,2.3-2.7,1.9v-1.5c0.5,0.2,0.9,0.2,1-0.8l0.4-7.8H27.4z"/>
		<path class="st1" d="M32.6,17.5h5.1v1.5h-3.4v2.1H37v1.5h-2.7v3.7h3.3v1.5h-5.1V17.5H32.6z"/>
		<path class="st1" d="M41,27.7h-1.7V17.5H41v3.5c0.9,0.3,2.4,0.3,2.4-0.8v-2.5H45l0.1,2.6c0,1.6-0.6,2.1-1.1,2.3l1.9,5.3h-1.8
			l-1.8-5.2c-0.3,0-0.9,0-1.2,0v5.1H41z"/>
		<path class="st1" d="M47.4,17.5h1.8v8.7h2.5v-8.7h1.7v8.7H54v2.2h-1.5v-0.6h-3.8h-1.2V17.5z"/>
		<path class="st1" d="M55.8,27.7V17.5h1.7v10.2H55.8z"/>
		<path class="st1" d="M61.9,17.3c2.1,0,3.2,2.2,3.2,5.3c0,3.2-1.1,5.4-3.2,5.4c-2.1,0-3.1-2.2-3.1-5.4C58.7,19.5,60,17.3,61.9,17.3
			z M60.4,22.6c0,2.1,0.5,3.9,1.5,3.8c1,0,1.5-1.7,1.5-3.9s-0.4-3.8-1.5-3.8C60.9,18.8,60.4,20.5,60.4,22.6z"/>
		<path class="st1" d="M68.8,22.3v5.5h-1.7V17.6h1.7v3.3h2.7v-3.3h1.7v10.2h-1.7v-5.5H68.8z"/>
		<path class="st1" d="M77,22.3v5.5h-1.7V17.6H77v3.3h2.7v-3.3h1.7v10.2h-1.7v-5.5H77z"/>
		<path class="st1" d="M86.4,17.3c2.1,0,3.2,2.2,3.2,5.3c0,3.2-1.1,5.4-3.2,5.4c-2.1,0-3.1-2.2-3.1-5.4
			C83.2,19.5,84.4,17.3,86.4,17.3z M84.9,22.6c0,2.1,0.5,3.9,1.5,3.8c1,0,1.5-1.7,1.5-3.9s-0.4-3.8-1.5-3.8
			C85.4,18.8,84.9,20.5,84.9,22.6z"/>
		<path class="st1" d="M91.5,17.5h5.1v1.5h-3.4v2.1h2.7v1.5h-2.7v3.7h3.3v1.5h-5.1V17.5H91.5z"/>
		<path class="st1" d="M103,17.5h2.2c2.2,0,2.6,1.3,2.7,2.1l0.8,6.6h0.8v2.2h-1.7v-0.7h-4.7v0.7h-1.7v-2.1c0.4-0.1,1.1-0.2,1.2-1.7
			L103,17.5z M104.7,18.9l-0.2,5.7c-0.1,1.2-0.2,1.5-0.3,1.7h3l-0.6-5.3C106.4,19.1,105.7,18.8,104.7,18.9z"/>
		<path class="st1" d="M114.1,17.3c2.1,0,3.2,2.2,3.2,5.3c0,3.2-1.1,5.4-3.2,5.4c-2.1,0-3.1-2.2-3.1-5.4
			C111,19.5,112.1,17.3,114.1,17.3z M112.6,22.6c0,2.1,0.5,3.9,1.5,3.8c1,0,1.5-1.7,1.5-3.9s-0.4-3.8-1.5-3.8
			C113,18.8,112.6,20.5,112.6,22.6z"/>
		<path class="st1" d="M119.2,17.5h5.9v10.2h-1.7v-8.7h-2.6v8.7h-1.7V17.5z"/>
		<path class="st1" d="M130.2,17.3c2.1,0,3.2,2.2,3.2,5.3c0,3.2-1.1,5.4-3.2,5.4c-2.1,0-3.1-2.2-3.1-5.4
			C127,19.5,128.2,17.3,130.2,17.3z M128.6,22.6c0,2.1,0.5,3.9,1.5,3.8c1,0,1.5-1.7,1.5-3.9s-0.4-3.8-1.5-3.8
			C129.1,18.8,128.6,20.5,128.6,22.6z"/>
		<path class="st1" d="M138.3,17.6c2.5-0.1,2.6,1.6,2.8,3.5l0.7,6.7h-1.7l-0.7-6.3c-0.2-2.3-0.5-2.4-1.7-2.4l-0.4,6.7
			c-0.1,1.5-0.4,2.3-2.7,1.9v-1.5c0.5,0.2,0.9,0.2,1-0.8l0.4-7.8H138.3z"/>
		<path class="st1" d="M145.2,22.3v5.5h-1.7V17.6h1.7v3.3h2.7v-3.3h1.7v10.2h-1.7v-5.5H145.2z"/>
		<path class="st1" d="M151.8,17.5h5.1v1.5h-3.4v2.1h2.7v1.5h-2.7v3.7h3.3v1.5h-5V17.5z"/>
		<path class="st1" d="M160.1,22.3v5.5h-1.7V17.6h1.7v3.3h2.7v-3.3h1.7v10.2h-1.7v-5.5H160.1z"/>
		<path class="st1" d="M166.8,27.7V17.5h1.7v10.2H166.8z"/>
		<path class="st1" d="M170,17.5h5.1v1.5h-3.4v2.1h2.7v1.5h-2.7v3.7h3.3v1.5h-5.1V17.5H170z"/>
		<path class="st1" d="M234.8,27.7h-1.7V17.5h1.7v3.5c0.9,0.3,2.4,0.3,2.4-0.8v-2.5h1.7l0.1,2.6c0,1.6-0.6,2.1-1.1,2.3l1.9,5.3h-1.8
			l-1.8-5.2c-0.3,0-0.9,0-1.2,0v5.1H234.8z"/>
		<path class="st1" d="M243.9,20.6c1.2-1.2,3.5-0.7,3.4,3.2c0,1.1-0.3,4.1-3.2,3.9h-1.9v-8.7h-1.4v-1.5h3.2v3.2H243.9z M243.9,26.3
			c0.9,0.1,1.7-0.7,1.7-2.9c0-1.3-0.3-1.8-0.7-1.8c-0.6,0-0.9,0.5-0.9,1.6V26.3z"/>
		<path class="st1" d="M259.6,27.7H258l-0.3-6.9l-2.8,2.7v4.2h-1.7V17.5h1.7v3.8l4.3-4.1L259.6,27.7z"/>
		<path class="st1" d="M261.7,27.7V17.5h3.9v1.5h-2.2v8.7H261.7z"/>
		<path class="st1" d="M267.3,17.5h1.9c2.9-0.2,3.3,2.9,3.2,3.9c0.2,3.9-2.2,4.3-3.4,3.2v3.1h-1.8V17.5H267.3z M269,22.1
			c0,2.1,1.7,2.1,1.7-0.2c0.1-2.2-0.7-3.1-1.7-2.9V22.1z"/>
		<path class="st1" d="M287.1,21.5c0.3-1.2,0.9-2.7,1.3-3.4l0.8-0.1c-0.3,0.8-0.6,2.3-0.8,3.4L287.1,21.5z M289.2,21.5
			c0.3-1.2,0.9-2.7,1.3-3.4l0.8-0.1c-0.3,0.8-0.6,2.3-0.8,3.4L289.2,21.5z"/>
		<path class="st1" d="M293.3,27.7v-8.6h-1.5v-1.6h4.7v1.6h-1.5v8.6H293.3z"/>
		<path class="st1" d="M298,27.7V17.5h1.7v10.2H298z"/>
		<path class="st1" d="M306.4,26.4v1.7c-3.6-0.1-5.5-2.3-5.5-5.4c0-3.1,1.7-5.5,5.5-5.4v1.6c-2.5-0.1-3.7,1.7-3.7,3.8
			C302.7,24.7,303.9,26.4,306.4,26.4z"/>
		<path class="st1" d="M309.8,27.7h-1.7V17.5h1.7v3.5c0.9,0.3,2.4,0.3,2.4-0.8v-2.5h1.7l0.1,2.6c0,1.6-0.6,2.1-1.1,2.3l1.9,5.3h-1.8
			l-1.8-5.2c-0.3,0-0.9,0-1.2,0v5.1H309.8z"/>
		<path class="st1" d="M316,17.5h5.1v1.6h-3.4v2h2.7v1.6h-2.7v3.7h3.3v1.6h-5.1V17.5H316z"/>
		<path class="st1" d="M323.7,27.7v-8.6h-1.5v-1.6h4.7v1.6h-1.5v8.6H323.7z"/>
		<path class="st1" d="M333.3,27.7v-8.6h-1.5v-1.6h4.7v1.6H335v8.6H333.3z"/>
		<path class="st1" d="M340.8,17.3c2.1,0,3.2,2.2,3.2,5.3c0,3.2-1.1,5.4-3.2,5.4c-2.1,0-3.1-2.2-3.1-5.4
			C337.6,19.5,338.8,17.3,340.8,17.3z M339.2,22.6c0,2.1,0.5,3.9,1.5,3.8c1,0,1.5-1.8,1.5-3.9c0-2.1-0.4-3.8-1.5-3.8
			C339.7,18.8,339.2,20.5,339.2,22.6z"/>
		<path class="st1" d="M349.8,17.5h3.5c1.4,0,2.7,0.9,2.7,2.4c0,1.5-0.5,1.9-1.7,2.4l1.9,5.3h-1.7l-1.8-5.2h-1.2v5.2h-1.7V17.5
			H349.8z M351.4,19.1v2h1.7c0.6,0,1.1-0.4,1.1-1.1s-0.5-1.1-1.1-1.1h-1.7V19.1z"/>
		<path class="st1" d="M358,27.7V17.5h1.7v10.2H358z"/>
		<path class="st1" d="M367.8,22.4c0,2.3-1,6-6.5,5.6V17.3C366,16.9,367.8,19.7,367.8,22.4z M366.2,22.5c0-2.2-1.4-3.4-3.2-3.5v7.3
			C364.8,26,366.2,24.6,366.2,22.5z"/>
		<path class="st1" d="M369.5,17.5h5.1v1.6h-3.4v2h2.7v1.6h-2.7v3.7h3.3v1.6h-5.1V17.5H369.5z"/>
		<path class="st1" d="M377.9,18c-0.3,1.2-0.9,2.7-1.3,3.4l-0.8,0.1c0.3-0.8,0.6-2.3,0.8-3.4L377.9,18z M380,18
			c-0.3,1.2-0.9,2.7-1.3,3.4l-0.8,0.1c0.3-0.8,0.6-2.3,0.8-3.4L380,18z"/>
		<path class="st1" d="M276.8,20.6c1.2-1.2,3.5-0.7,3.4,3.2c0,1.1-0.3,4.1-3.2,3.9h-1.9V16.3h1.8v4.3H276.8z M276.8,26.3
			c0.9,0.1,1.7-0.7,1.7-2.9c0-1.3-0.3-1.8-0.7-1.8c-0.6,0-0.9,0.5-0.9,1.6V26.3z"/>
		<path class="st1" d="M278.1,17.5h-4.5v1.5h4.5V17.5z"/>
		<path class="st1" d="M207.1,9.8c0.1,0.2-1.1,0.3-1.2,0.3c-0.6-0.2-2-0.5-1.9-1.5c0.1-0.7,1.2-0.6,0.8,0.2c1.1,0,0.8-2.1-0.3-2
			c-0.5,0-0.9,0.5-1,0.9c-0.4,1.1,0.9,3.1,2,3.4c1.2,0.4,3.3,0,3.7-1.3c0.2-0.5,0.1-1.3,0.2-1.9c0.2-0.7,0.7-1.3,1.4-1.6
			c-1.2-0.6-2.8-0.5-3.9,0.3c-0.5,0.4-0.8,1.2-0.6,1.8C206.3,9.2,206.7,9.4,207.1,9.8z"/>
		<path class="st1" d="M200.7,6.3c0.4,1.2,1.4,2.6,2.8,1.8c0.5-0.3,0.8-1.2,1-1.8c0.1-0.3,0.2-0.6,0.2-0.9c0-0.1-0.1-0.9-0.1-0.9
			c-0.4,0.4-0.6,0.9-1.2,1.2c0.1-0.8,0.5-1.6,0.6-2.5c0.1-1.3-0.4-2.3-1.3-3.1c-1,0.7-1.4,1.8-1.3,3.1c0.1,0.8,0.5,1.7,0.6,2.5
			c-0.6-0.1-0.8-0.7-1.2-1.2c0,0-0.1,0.8-0.1,0.9C200.5,5.7,200.6,6,200.7,6.3z"/>
		<path class="st1" d="M198.2,9.8c-0.1,0.2,1.1,0.3,1.2,0.3c0.6-0.2,2-0.5,1.9-1.5c-0.1-0.7-1.2-0.6-0.8,0.2c-1.1,0-0.8-2.1,0.3-2
			c0.5,0,0.9,0.5,1,0.9c0.4,1.1-0.9,3.1-2,3.4c-1.2,0.4-3.3,0-3.7-1.3c-0.2-0.5-0.1-1.3-0.2-1.9c-0.2-0.7-0.7-1.3-1.4-1.6
			c1.2-0.6,2.8-0.5,3.9,0.3c0.5,0.4,0.8,1.2,0.6,1.8C199,9.2,198.5,9.4,198.2,9.8z"/>
		<path class="st1" d="M195.2,38v-0.1c0.1,0,0.2-0.1,0.2-0.3v-3.3h-2V36c0,1.5-0.5,2-1.1,2h-0.5v-0.9h0.1c0,0.1,0.1,0.1,0.1,0.1
			c0.3,0,0.4-0.3,0.4-1.2v-2.1c0-0.2-0.1-0.2-0.2-0.3v-0.1h4.5v0.1c-0.1,0-0.2,0.1-0.2,0.3v3.6c0,0.2,0.1,0.2,0.2,0.3v0.1h-1.5V38z"
			/>
		<path class="st1" d="M205.5,37.6c0,0.2,0.1,0.2,0.2,0.3V38h-1.5v-0.1c0.1,0,0.2-0.1,0.2-0.3v-3.3h-1.2c-0.2,0-0.2,0.1-0.3,0.2
			h-0.1v-1.4h0.1c0.1,0.2,0.1,0.3,0.3,0.3h3.6c0.2,0,0.2-0.1,0.3-0.3h0.1v1.4h-0.1c0-0.2-0.1-0.2-0.3-0.2h-1.2V37.6z"/>
		<path class="st1" d="M208.1,34.3c-0.2,0-0.2,0.1-0.3,0.2h-0.1v-1.4h0.1c0.1,0.2,0.1,0.3,0.3,0.3h2.3v0.1c-0.1,0.1-0.2,0.1-0.2,0.3
			v1.2h1.5c0.8,0,1.9,0.2,1.9,1.5c0,1.2-0.9,1.5-1.9,1.5h-2.8v-0.1c0.1,0,0.2-0.1,0.2-0.3v-3.3H208.1z M211.6,35.9h-1.4v1.3h1.4
			c0.3,0,0.8-0.1,0.8-0.6C212.5,36,212,35.9,211.6,35.9z"/>
		<path class="st1" d="M201.2,35.2h-1.5v-0.7h0.1h1.9c0.2,0,0.2,0.1,0.3,0.2h0.1v-1.4h-0.1c-0.1,0.2-0.1,0.3-0.3,0.3h-1.8h-0.2v-0.4
			c0-0.2,0.1-0.2,0.2-0.3v-0.1h-1.5v0.1c0.2,0,0.2,0.1,0.2,0.3v0.4h-1c-0.2,0-0.2-0.1-0.3-0.3v1.4h0.1c0.1-0.2,0.1-0.2,0.3-0.2h1
			v3.3c0,0.2-0.1,0.2-0.2,0.3v0.1h2.9c0.8,0,1.9-0.2,1.9-1.5C203.1,35.4,202,35.2,201.2,35.2z M201.1,37.3h-1.4v-0.8V36h1.4
			c0.3,0,0.8,0.1,0.8,0.6C201.9,37.2,201.5,37.3,201.1,37.3z"/>
		<path class="st2" d="M192.2,29.3c-0.5-0.5-0.9-1.1-1.2-1.7c-0.9-1.5-1.3-3.2-1.3-4.8c0-3.4,1.8-6.3,4.6-8.3c0,0-0.7-0.6-0.7-1.3"
			/>
		<path class="st1" d="M187.3,30.7c0.8-0.6,1.2-1.5,2.3-1.9c1-0.4,2.1-0.5,3.1,0c1.5,0.8,0.9,3.7-0.9,2.9c-1-0.4-0.6-1.7,0.5-1.3
			c-0.9,0.6,0.6,0.9,0.4-0.1c-0.2-0.9-1.5-1.1-2.3-0.9c-1,0.2-1.3,1.2-2.2,1.7c-1,0.7-2.3,1.2-3.3,0.1c-0.9-0.9-0.8-2.2,0.3-2.8
			c0.7-0.4,2,0.3,2.1,1.2c0.1,0.4-0.4,0.9-0.8,1.1c-0.4,0-0.3-0.3-0.6-0.5c-0.3-0.3-0.6-0.2-0.7,0.3
			C184.9,31.5,186.7,31.2,187.3,30.7z"/>
		<path class="st2" d="M213.2,28.7c1.4-1.7,2.3-3.9,2.3-6.1c0-3.4-1.8-6.3-4.6-8.3c0,0,0.7-0.6,0.7-1.3"/>
		<path class="st1" d="M218,30.7c-0.8-0.6-1.2-1.5-2.3-1.9c-1-0.4-2.1-0.5-3.1,0c-1.5,0.8-0.9,3.7,0.9,2.9c1-0.4,0.6-1.7-0.5-1.3
			c0.9,0.6-0.6,0.9-0.4-0.1c0.2-0.9,1.5-1.1,2.3-0.9c1,0.2,1.3,1.2,2.2,1.7c1,0.7,2.3,1.2,3.3,0.1c0.9-0.9,0.8-2.2-0.3-2.8
			c-0.7-0.4-2,0.3-2.1,1.2c-0.1,0.4,0.4,0.9,0.8,1.1c0.4,0,0.3-0.3,0.6-0.5c0.3-0.3,0.6-0.2,0.7,0.3C220.4,31.5,218.5,31.2,218,30.7
			z"/>
		<path class="st1" d="M198.7,15.5c0.2-0.1,0.3-0.1,0.5-0.1c0.3,0,0.3,0.1,0.3,1.5V28c0,0.6,0.3,0.6,0.7,0.8
			c0.3,0.1,0.5,0.2,0.5,0.4c0,0.3-0.1,0.3-1.1,0.3H197c-1,0-1.1-0.1-1.1-0.3c0-0.2,0.2-0.3,0.5-0.4c0.4-0.1,0.6-0.2,0.6-0.8v-9.4
			c0-0.6-0.2-0.8-0.6-0.8c-0.3-0.1-0.6-0.1-0.6-0.4c0-0.2,0.1-0.3,0.2-0.3L198.7,15.5z"/>
		<path class="st1" d="M209.8,23.1c0,5.8-1.9,6.6-4.3,6.6c-2.5,0-4.2-0.8-4.2-6.6c0-4.2,0.8-8,4.2-8
			C208.9,15.1,209.8,18.8,209.8,23.1z M206.4,23.3c0-0.2,0-0.4,0-0.7c0-0.2,0-0.4,0-0.7c0-3.8,0-5.6-0.9-5.6s-0.9,1.9-0.9,5.6
			c0,0.2,0,0.4,0,0.7c0,0.2,0,0.4,0,0.7c0,3.7,0,5.1,0.9,5.1C206.4,28.4,206.4,26.9,206.4,23.3z"/>
	</g>
</g>
</svg>
